<svg width="58" height="58" viewBox="0 0 58 58" fill="none" xmlns="http://www.w3.org/2000/svg">
<path d="M29 56C43.9117 56 56 43.9117 56 29C56 14.0883 43.9117 2 29 2C14.0883 2 2 14.0883 2 29C2 43.9117 14.0883 56 29 56Z" stroke="#DADADA" stroke-width="4"/>
<path fill-rule="evenodd" clip-rule="evenodd" d="M19.1818 23.8454C19.1818 29.1473 29 43.7273 29 43.7273C29 43.7273 38.8182 29.1473 38.8182 23.8454C38.8182 18.562 34.4268 14.2727 29 14.2727C23.5732 14.2727 19.1818 18.562 19.1818 23.8454ZM22.7521 24.0848C22.7521 20.8263 25.7511 17.9545 29 17.9545C32.2489 17.9545 35.2122 20.8632 35.2122 24.1032C35.2122 27.3616 32.2311 30.8041 28.9643 30.8041C25.7154 30.8041 22.7521 27.3432 22.7521 24.0848Z" fill="#DADADA"/>
</svg>
