<svg width="58" height="58" viewBox="0 0 58 58" fill="none" xmlns="http://www.w3.org/2000/svg">
<path d="M29 56C43.9117 56 56 43.9117 56 29C56 14.0883 43.9117 2 29 2C14.0883 2 2 14.0883 2 29C2 43.9117 14.0883 56 29 56Z" stroke="#DADADA" stroke-width="4"/>
<path fill-rule="evenodd" clip-rule="evenodd" d="M29 17.9325C32.6046 17.9325 33.0316 17.9462 34.4551 18.0111C35.7713 18.0712 36.4862 18.2911 36.9619 18.476C37.592 18.7209 38.0418 19.0135 38.5142 19.4858C38.9865 19.9582 39.2791 20.408 39.524 21.0381C39.7089 21.5138 39.9288 22.2287 39.9889 23.5448C40.0538 24.9684 40.0675 25.3954 40.0675 29C40.0675 32.6047 40.0538 33.0316 39.9889 34.4552C39.9288 35.7714 39.7089 36.4862 39.524 36.962C39.2791 37.5921 38.9865 38.0418 38.5142 38.5142C38.0418 38.9866 37.592 39.2792 36.9619 39.524C36.4862 39.7089 35.7713 39.9288 34.4551 39.9889C33.0318 40.0539 32.6049 40.0676 29 40.0676C25.3951 40.0676 24.9681 40.0539 23.5448 39.9889C22.2286 39.9288 21.5138 39.7089 21.0381 39.524C20.4079 39.2792 19.9582 38.9866 19.4858 38.5142C19.0134 38.0418 18.7208 37.5921 18.476 36.962C18.2911 36.4862 18.0712 35.7714 18.0111 34.4552C17.9461 33.0316 17.9324 32.6047 17.9324 29C17.9324 25.3954 17.9461 24.9684 18.0111 23.5449C18.0712 22.2287 18.2911 21.5138 18.476 21.0381C18.7208 20.408 19.0134 19.9582 19.4858 19.4858C19.9582 19.0135 20.4079 18.7209 21.0381 18.476C21.5138 18.2911 22.2286 18.0712 23.5448 18.0111C24.9684 17.9462 25.3953 17.9325 29 17.9325ZM29 15.5C25.3336 15.5 24.8739 15.5155 23.434 15.5812C21.997 15.6468 21.0157 15.875 20.1569 16.2088C19.2692 16.5538 18.5163 17.0154 17.7658 17.7659C17.0153 18.5164 16.5537 19.2692 16.2087 20.157C15.875 21.0157 15.6468 21.997 15.5812 23.434C15.5155 24.8739 15.5 25.3336 15.5 29C15.5 32.6664 15.5155 33.1262 15.5812 34.566C15.6468 36.003 15.875 36.9843 16.2087 37.8431C16.5537 38.7308 17.0153 39.4837 17.7658 40.2342C18.5163 40.9847 19.2692 41.4463 20.1569 41.7913C21.0157 42.125 21.997 42.3532 23.434 42.4188C24.8739 42.4845 25.3336 42.5 29 42.5C32.6664 42.5 33.1261 42.4845 34.566 42.4188C36.003 42.3532 36.9843 42.125 37.843 41.7913C38.7308 41.4463 39.4836 40.9847 40.2341 40.2342C40.9846 39.4837 41.4462 38.7308 41.7912 37.8431C42.125 36.9843 42.3532 36.003 42.4188 34.566C42.4845 33.1262 42.5 32.6664 42.5 29C42.5 25.3336 42.4845 24.8739 42.4188 23.434C42.3532 21.997 42.125 21.0157 41.7912 20.157C41.4462 19.2692 40.9846 18.5164 40.2341 17.7659C39.4836 17.0154 38.7308 16.5538 37.843 16.2088C36.9843 15.875 36.003 15.6468 34.566 15.5812C33.1261 15.5155 32.6664 15.5 29 15.5ZM29.0268 22.0893C25.1953 22.0893 22.0893 25.1953 22.0893 29.0268C22.0893 32.8582 25.1953 35.9643 29.0268 35.9643C32.8582 35.9643 35.9643 32.8582 35.9643 29.0268C35.9643 25.1953 32.8582 22.0893 29.0268 22.0893ZM29.0268 33.5301C26.5397 33.5301 24.5235 31.5139 24.5235 29.0268C24.5235 26.5397 26.5397 24.5235 29.0268 24.5235C31.5139 24.5235 33.5301 26.5397 33.5301 29.0268C33.5301 31.5139 31.5139 33.5301 29.0268 33.5301ZM37.7857 21.7678C37.7857 22.6554 37.0662 23.375 36.1786 23.375C35.291 23.375 34.5714 22.6554 34.5714 21.7678C34.5714 20.8802 35.291 20.1607 36.1786 20.1607C37.0662 20.1607 37.7857 20.8802 37.7857 21.7678Z" fill="#DADADA"/>
</svg>
