<svg width="58" height="58" viewBox="0 0 58 58" fill="none" xmlns="http://www.w3.org/2000/svg">
<path d="M29 56C43.9117 56 56 43.9117 56 29C56 14.0883 43.9117 2 29 2C14.0883 2 2 14.0883 2 29C2 43.9117 14.0883 56 29 56Z" stroke="#DADADA" stroke-width="4"/>
<path fill-rule="evenodd" clip-rule="evenodd" d="M35.3 31.7C33.5 33.5 33.5 35.3 31.7 35.3C29.9 35.3 28.1 33.5 26.3 31.7C24.5 29.9 22.7 28.1 22.7 26.3C22.7 24.5 24.5 24.5 26.3 22.7C28.1 20.9 22.7 15.5 20.9 15.5C19.1 15.5 15.5 20.9 15.5 20.9C15.5 24.5 19.199 31.799 22.7 35.3C26.1992 38.801 33.5 42.5 37.1 42.5C37.1 42.5 42.5 38.9 42.5 37.1C42.5 35.3 37.1 29.9 35.3 31.7Z" fill="#DADADA"/>
</svg>
