<svg width="60" height="28" viewBox="0 0 60 28" fill="none" xmlns="http://www.w3.org/2000/svg">
<circle cx="6.49412" cy="14.4941" r="6.49412" fill="#FF0000"/>
<path d="M20.6727 5.95294C23.108 5.95294 24.9669 6.39941 26.2495 7.29235C27.5484 8.18529 28.1978 9.54906 28.1978 11.3836C28.1978 13.6728 27.0694 15.2233 24.8127 16.0351C25.1212 16.4085 25.4702 16.8631 25.8599 17.3988C26.2495 17.9346 26.6473 18.5191 27.0532 19.1522C27.4591 19.7692 27.8487 20.4105 28.2221 21.0761C28.5955 21.7255 28.9284 22.3668 29.2206 23H25.7868C25.4784 22.4155 25.1455 21.8311 24.7884 21.2466C24.4312 20.6459 24.0659 20.0695 23.6925 19.5175C23.3353 18.9493 22.9781 18.4216 22.6209 17.9346C22.2638 17.4313 21.9309 16.9848 21.6225 16.5952C21.3952 16.6114 21.2004 16.6195 21.038 16.6195C20.8756 16.6195 20.7214 16.6195 20.5753 16.6195H19.0898V23H16.0213V6.36694C16.7681 6.20459 17.5636 6.09906 18.4079 6.05035C19.2521 5.98541 20.0071 5.95294 20.6727 5.95294ZM20.8919 8.60741C20.2425 8.60741 19.6418 8.63176 19.0898 8.68047V14.1355H20.4292C21.176 14.1355 21.8335 14.0949 22.4018 14.0138C22.97 13.9326 23.4408 13.7865 23.8142 13.5754C24.2039 13.3644 24.4961 13.0802 24.6909 12.7231C24.8858 12.3659 24.9832 11.9113 24.9832 11.3593C24.9832 10.8398 24.8858 10.4014 24.6909 10.0442C24.4961 9.68706 24.212 9.40294 23.8386 9.19188C23.4814 8.98082 23.0512 8.8347 22.5479 8.75353C22.0446 8.65612 21.4926 8.60741 20.8919 8.60741ZM31.5986 23V6.12341H42.4357V8.72918H34.6671V12.8935H41.5833V15.4506H34.6671V20.3942H43.0201V23H31.5986ZM52.7503 23.3653C51.4839 23.3653 50.3475 23.1705 49.3409 22.7808C48.3343 22.3912 47.4819 21.8229 46.7838 21.0761C46.0857 20.3131 45.5499 19.3876 45.1765 18.2999C44.8031 17.2121 44.6164 15.962 44.6164 14.5495C44.6164 13.1371 44.8275 11.8869 45.2496 10.7992C45.6879 9.71141 46.2805 8.79412 47.0273 8.04729C47.7742 7.28423 48.6509 6.70788 49.6575 6.31823C50.6641 5.92859 51.7437 5.73376 52.8964 5.73376C53.5945 5.73376 54.2277 5.79059 54.7959 5.90423C55.3642 6.00165 55.8593 6.11529 56.2815 6.24518C56.7036 6.37506 57.0526 6.51306 57.3286 6.65918C57.6046 6.80529 57.7995 6.91082 57.9131 6.97576L57.0121 9.48412C56.6224 9.24059 56.0623 9.01329 55.3317 8.80223C54.6173 8.57494 53.8381 8.46129 52.9938 8.46129C52.2632 8.46129 51.5813 8.59118 50.9482 8.85094C50.315 9.09447 49.763 9.46788 49.2922 9.97118C48.8376 10.4745 48.4804 11.1076 48.2206 11.8707C47.9609 12.6338 47.831 13.5186 47.831 14.5252C47.831 15.4181 47.9284 16.238 48.1232 16.9848C48.3343 17.7316 48.6509 18.3811 49.073 18.9331C49.4951 19.4688 50.0309 19.8909 50.6803 20.1994C51.3297 20.4916 52.109 20.6378 53.0182 20.6378C54.1059 20.6378 54.9908 20.5322 55.6726 20.3212C56.3545 20.0939 56.8822 19.8828 57.2556 19.688L58.0836 22.1964C57.8888 22.3262 57.6209 22.4561 57.2799 22.586C56.9552 22.7159 56.5656 22.8458 56.111 22.9756C55.6564 23.0893 55.145 23.1786 54.5768 23.2435C54.0085 23.3247 53.3997 23.3653 52.7503 23.3653Z" fill="black"/>
<path d="M26.2495 7.29235L25.6782 8.11306L25.683 8.11639L26.2495 7.29235ZM24.8127 16.0351L24.4742 15.0941L23.136 15.5755L24.0417 16.6719L24.8127 16.0351ZM25.8599 17.3988L25.0511 17.987L25.0511 17.987L25.8599 17.3988ZM27.0532 19.1522L26.2112 19.6919L26.2178 19.7019L27.0532 19.1522ZM28.2221 21.0761L27.3499 21.5654L27.3552 21.5746L28.2221 21.0761ZM29.2206 23V24H30.7835L30.1285 22.5809L29.2206 23ZM25.7868 23L24.9024 23.4668L25.1839 24H25.7868V23ZM24.7884 21.2466L23.9288 21.7577L23.9351 21.768L24.7884 21.2466ZM23.6925 19.5175L22.8458 20.0497L22.8548 20.0639L22.8642 20.0778L23.6925 19.5175ZM22.6209 17.9346L21.8054 18.5133L21.8099 18.5197L21.8145 18.526L22.6209 17.9346ZM21.6225 16.5952L22.4065 15.9745L22.0784 15.5601L21.5512 15.5977L21.6225 16.5952ZM19.0898 16.6195V15.6195H18.0898V16.6195H19.0898ZM19.0898 23V24H20.0898V23H19.0898ZM16.0213 23H15.0213V24H16.0213V23ZM16.0213 6.36694L15.8089 5.38976L15.0213 5.56097V6.36694H16.0213ZM18.4079 6.05035L18.4655 7.04869L18.475 7.04814L18.4846 7.04741L18.4079 6.05035ZM19.0898 8.68047L19.0019 7.68434L18.0898 7.76482V8.68047H19.0898ZM19.0898 14.1355H18.0898V15.1355H19.0898V14.1355ZM22.4018 14.0138L22.5432 15.0037L22.5432 15.0037L22.4018 14.0138ZM23.8142 13.5754L23.338 12.6961L23.33 12.7004L23.3222 12.7048L23.8142 13.5754ZM24.6909 12.7231L23.813 12.2442L23.813 12.2442L24.6909 12.7231ZM24.6909 10.0442L23.813 10.5231L23.813 10.5231L24.6909 10.0442ZM23.8386 9.19188L23.3299 10.0528L23.3381 10.0577L23.3465 10.0624L23.8386 9.19188ZM22.5479 8.75353L22.3579 9.73531L22.3732 9.73828L22.3887 9.74077L22.5479 8.75353ZM20.6727 6.95294C23.0096 6.95294 24.6331 7.38544 25.6782 8.11305L26.8209 6.47166C25.3008 5.41338 23.2064 4.95294 20.6727 4.95294V6.95294ZM25.683 8.11639C26.6629 8.79008 27.1978 9.81608 27.1978 11.3836H29.1978C29.1978 9.28203 28.4338 7.58051 26.8161 6.46831L25.683 8.11639ZM27.1978 11.3836C27.1978 12.3588 26.96 13.1018 26.5429 13.675C26.1231 14.2518 25.4615 14.7389 24.4742 15.0941L25.1512 16.976C26.4206 16.5194 27.4515 15.8254 28.1601 14.8518C28.8713 13.8745 29.1978 12.6976 29.1978 11.3836H27.1978ZM24.0417 16.6719C24.3334 17.025 24.6695 17.4623 25.0511 17.987L26.6686 16.8107C26.2709 16.2638 25.909 15.792 25.5837 15.3982L24.0417 16.6719ZM25.0511 17.987C25.4279 18.505 25.8146 19.0731 26.2113 19.6919L27.8951 18.6126C27.48 17.9651 27.0712 17.3642 26.6686 16.8107L25.0511 17.987ZM26.2178 19.7019C26.6103 20.2985 26.9877 20.9196 27.35 21.5654L29.0943 20.5869C28.7097 19.9014 28.3078 19.2399 27.8886 18.6026L26.2178 19.7019ZM27.3552 21.5746C27.7148 22.2 28.0338 22.8149 28.3126 23.4191L30.1285 22.5809C29.8229 21.9188 29.4762 21.251 29.089 20.5776L27.3552 21.5746ZM29.2206 22H25.7868V24H29.2206V22ZM26.6712 22.5332C26.3526 21.9296 26.0094 21.3269 25.6416 20.7251L23.9351 21.768C24.2817 22.3353 24.6041 22.9015 24.9024 23.4668L26.6712 22.5332ZM25.6479 20.7355C25.2813 20.1189 24.9056 19.5261 24.5208 18.9572L22.8642 20.0778C23.2262 20.613 23.5811 21.1729 23.9288 21.7577L25.6479 20.7355ZM24.5391 18.9854C24.1706 18.3991 23.8001 17.8515 23.4273 17.3432L21.8145 18.526C22.1562 18.9918 22.5 19.4995 22.8458 20.0497L24.5391 18.9854ZM23.4364 17.3558C23.0715 16.8415 22.7281 16.3806 22.4065 15.9745L20.8384 17.2159C21.1338 17.589 21.4561 18.0211 21.8054 18.5133L23.4364 17.3558ZM21.5512 15.5977C21.339 15.6129 21.1693 15.6195 21.038 15.6195V17.6195C21.2314 17.6195 21.4514 17.6099 21.6937 17.5926L21.5512 15.5977ZM21.038 15.6195C21.0377 15.6195 21.0374 15.6195 21.037 15.6195C21.0367 15.6195 21.0364 15.6195 21.0361 15.6195C21.0358 15.6195 21.0355 15.6195 21.0351 15.6195C21.0348 15.6195 21.0345 15.6195 21.0342 15.6195C21.0339 15.6195 21.0336 15.6195 21.0332 15.6195C21.0329 15.6195 21.0326 15.6195 21.0323 15.6195C21.032 15.6195 21.0317 15.6195 21.0313 15.6195C21.031 15.6195 21.0307 15.6195 21.0304 15.6195C21.0301 15.6195 21.0298 15.6195 21.0294 15.6195C21.0291 15.6195 21.0288 15.6195 21.0285 15.6195C21.0282 15.6195 21.0279 15.6195 21.0275 15.6195C21.0272 15.6195 21.0269 15.6195 21.0266 15.6195C21.0263 15.6195 21.026 15.6195 21.0256 15.6195C21.0253 15.6195 21.025 15.6195 21.0247 15.6195C21.0244 15.6195 21.0241 15.6195 21.0238 15.6195C21.0234 15.6195 21.0231 15.6195 21.0228 15.6195C21.0225 15.6195 21.0222 15.6195 21.0219 15.6195C21.0215 15.6195 21.0212 15.6195 21.0209 15.6195C21.0206 15.6195 21.0203 15.6195 21.02 15.6195C21.0196 15.6195 21.0193 15.6195 21.019 15.6195C21.0187 15.6195 21.0184 15.6195 21.0181 15.6195C21.0177 15.6195 21.0174 15.6195 21.0171 15.6195C21.0168 15.6195 21.0165 15.6195 21.0162 15.6195C21.0159 15.6195 21.0155 15.6195 21.0152 15.6195C21.0149 15.6195 21.0146 15.6195 21.0143 15.6195C21.014 15.6195 21.0136 15.6195 21.0133 15.6195C21.013 15.6195 21.0127 15.6195 21.0124 15.6195C21.0121 15.6195 21.0118 15.6195 21.0114 15.6195C21.0111 15.6195 21.0108 15.6195 21.0105 15.6195C21.0102 15.6195 21.0099 15.6195 21.0095 15.6195C21.0092 15.6195 21.0089 15.6195 21.0086 15.6195C21.0083 15.6195 21.008 15.6195 21.0077 15.6195C21.0073 15.6195 21.007 15.6195 21.0067 15.6195C21.0064 15.6195 21.0061 15.6195 21.0058 15.6195C21.0054 15.6195 21.0051 15.6195 21.0048 15.6195C21.0045 15.6195 21.0042 15.6195 21.0039 15.6195C21.0036 15.6195 21.0032 15.6195 21.0029 15.6195C21.0026 15.6195 21.0023 15.6195 21.002 15.6195C21.0017 15.6195 21.0014 15.6195 21.001 15.6195C21.0007 15.6195 21.0004 15.6195 21.0001 15.6195C20.9998 15.6195 20.9995 15.6195 20.9992 15.6195C20.9988 15.6195 20.9985 15.6195 20.9982 15.6195C20.9979 15.6195 20.9976 15.6195 20.9973 15.6195C20.997 15.6195 20.9966 15.6195 20.9963 15.6195C20.996 15.6195 20.9957 15.6195 20.9954 15.6195C20.9951 15.6195 20.9948 15.6195 20.9944 15.6195C20.9941 15.6195 20.9938 15.6195 20.9935 15.6195C20.9932 15.6195 20.9929 15.6195 20.9926 15.6195C20.9922 15.6195 20.9919 15.6195 20.9916 15.6195C20.9913 15.6195 20.991 15.6195 20.9907 15.6195C20.9904 15.6195 20.99 15.6195 20.9897 15.6195C20.9894 15.6195 20.9891 15.6195 20.9888 15.6195C20.9885 15.6195 20.9882 15.6195 20.9878 15.6195C20.9875 15.6195 20.9872 15.6195 20.9869 15.6195C20.9866 15.6195 20.9863 15.6195 20.986 15.6195C20.9856 15.6195 20.9853 15.6195 20.985 15.6195C20.9847 15.6195 20.9844 15.6195 20.9841 15.6195C20.9838 15.6195 20.9835 15.6195 20.9831 15.6195C20.9828 15.6195 20.9825 15.6195 20.9822 15.6195C20.9819 15.6195 20.9816 15.6195 20.9813 15.6195C20.9809 15.6195 20.9806 15.6195 20.9803 15.6195C20.98 15.6195 20.9797 15.6195 20.9794 15.6195C20.9791 15.6195 20.9788 15.6195 20.9784 15.6195C20.9781 15.6195 20.9778 15.6195 20.9775 15.6195C20.9772 15.6195 20.9769 15.6195 20.9766 15.6195C20.9762 15.6195 20.9759 15.6195 20.9756 15.6195C20.9753 15.6195 20.975 15.6195 20.9747 15.6195C20.9744 15.6195 20.9741 15.6195 20.9737 15.6195C20.9734 15.6195 20.9731 15.6195 20.9728 15.6195C20.9725 15.6195 20.9722 15.6195 20.9719 15.6195C20.9716 15.6195 20.9712 15.6195 20.9709 15.6195C20.9706 15.6195 20.9703 15.6195 20.97 15.6195C20.9697 15.6195 20.9694 15.6195 20.9691 15.6195C20.9687 15.6195 20.9684 15.6195 20.9681 15.6195C20.9678 15.6195 20.9675 15.6195 20.9672 15.6195C20.9669 15.6195 20.9666 15.6195 20.9662 15.6195C20.9659 15.6195 20.9656 15.6195 20.9653 15.6195C20.965 15.6195 20.9647 15.6195 20.9644 15.6195C20.9641 15.6195 20.9637 15.6195 20.9634 15.6195C20.9631 15.6195 20.9628 15.6195 20.9625 15.6195C20.9622 15.6195 20.9619 15.6195 20.9616 15.6195C20.9612 15.6195 20.9609 15.6195 20.9606 15.6195C20.9603 15.6195 20.96 15.6195 20.9597 15.6195C20.9594 15.6195 20.9591 15.6195 20.9587 15.6195C20.9584 15.6195 20.9581 15.6195 20.9578 15.6195C20.9575 15.6195 20.9572 15.6195 20.9569 15.6195C20.9566 15.6195 20.9563 15.6195 20.9559 15.6195C20.9556 15.6195 20.9553 15.6195 20.955 15.6195C20.9547 15.6195 20.9544 15.6195 20.9541 15.6195C20.9538 15.6195 20.9534 15.6195 20.9531 15.6195C20.9528 15.6195 20.9525 15.6195 20.9522 15.6195C20.9519 15.6195 20.9516 15.6195 20.9513 15.6195C20.951 15.6195 20.9506 15.6195 20.9503 15.6195C20.95 15.6195 20.9497 15.6195 20.9494 15.6195C20.9491 15.6195 20.9488 15.6195 20.9485 15.6195C20.9482 15.6195 20.9478 15.6195 20.9475 15.6195C20.9472 15.6195 20.9469 15.6195 20.9466 15.6195C20.9463 15.6195 20.946 15.6195 20.9457 15.6195C20.9454 15.6195 20.945 15.6195 20.9447 15.6195C20.9444 15.6195 20.9441 15.6195 20.9438 15.6195C20.9435 15.6195 20.9432 15.6195 20.9429 15.6195C20.9426 15.6195 20.9422 15.6195 20.9419 15.6195C20.9416 15.6195 20.9413 15.6195 20.941 15.6195C20.9407 15.6195 20.9404 15.6195 20.9401 15.6195C20.9398 15.6195 20.9394 15.6195 20.9391 15.6195C20.9388 15.6195 20.9385 15.6195 20.9382 15.6195C20.9379 15.6195 20.9376 15.6195 20.9373 15.6195C20.937 15.6195 20.9367 15.6195 20.9363 15.6195C20.936 15.6195 20.9357 15.6195 20.9354 15.6195C20.9351 15.6195 20.9348 15.6195 20.9345 15.6195C20.9342 15.6195 20.9339 15.6195 20.9336 15.6195C20.9332 15.6195 20.9329 15.6195 20.9326 15.6195C20.9323 15.6195 20.932 15.6195 20.9317 15.6195C20.9314 15.6195 20.9311 15.6195 20.9308 15.6195C20.9305 15.6195 20.9301 15.6195 20.9298 15.6195C20.9295 15.6195 20.9292 15.6195 20.9289 15.6195C20.9286 15.6195 20.9283 15.6195 20.928 15.6195C20.9277 15.6195 20.9274 15.6195 20.927 15.6195C20.9267 15.6195 20.9264 15.6195 20.9261 15.6195C20.9258 15.6195 20.9255 15.6195 20.9252 15.6195C20.9249 15.6195 20.9246 15.6195 20.9243 15.6195C20.9239 15.6195 20.9236 15.6195 20.9233 15.6195C20.923 15.6195 20.9227 15.6195 20.9224 15.6195C20.9221 15.6195 20.9218 15.6195 20.9215 15.6195C20.9212 15.6195 20.9209 15.6195 20.9205 15.6195C20.9202 15.6195 20.9199 15.6195 20.9196 15.6195C20.9193 15.6195 20.919 15.6195 20.9187 15.6195C20.9184 15.6195 20.9181 15.6195 20.9178 15.6195C20.9174 15.6195 20.9171 15.6195 20.9168 15.6195C20.9165 15.6195 20.9162 15.6195 20.9159 15.6195C20.9156 15.6195 20.9153 15.6195 20.915 15.6195C20.9147 15.6195 20.9144 15.6195 20.914 15.6195C20.9137 15.6195 20.9134 15.6195 20.9131 15.6195C20.9128 15.6195 20.9125 15.6195 20.9122 15.6195C20.9119 15.6195 20.9116 15.6195 20.9113 15.6195C20.911 15.6195 20.9107 15.6195 20.9103 15.6195C20.91 15.6195 20.9097 15.6195 20.9094 15.6195C20.9091 15.6195 20.9088 15.6195 20.9085 15.6195C20.9082 15.6195 20.9079 15.6195 20.9076 15.6195C20.9073 15.6195 20.9069 15.6195 20.9066 15.6195C20.9063 15.6195 20.906 15.6195 20.9057 15.6195C20.9054 15.6195 20.9051 15.6195 20.9048 15.6195C20.9045 15.6195 20.9042 15.6195 20.9039 15.6195C20.9036 15.6195 20.9032 15.6195 20.9029 15.6195C20.9026 15.6195 20.9023 15.6195 20.902 15.6195C20.9017 15.6195 20.9014 15.6195 20.9011 15.6195C20.9008 15.6195 20.9005 15.6195 20.9002 15.6195C20.8999 15.6195 20.8996 15.6195 20.8992 15.6195C20.8989 15.6195 20.8986 15.6195 20.8983 15.6195C20.898 15.6195 20.8977 15.6195 20.8974 15.6195C20.8971 15.6195 20.8968 15.6195 20.8965 15.6195C20.8962 15.6195 20.8959 15.6195 20.8956 15.6195C20.8952 15.6195 20.8949 15.6195 20.8946 15.6195C20.8943 15.6195 20.894 15.6195 20.8937 15.6195C20.8934 15.6195 20.8931 15.6195 20.8928 15.6195C20.8925 15.6195 20.8922 15.6195 20.8919 15.6195C20.8916 15.6195 20.8912 15.6195 20.8909 15.6195C20.8906 15.6195 20.8903 15.6195 20.89 15.6195C20.8897 15.6195 20.8894 15.6195 20.8891 15.6195C20.8888 15.6195 20.8885 15.6195 20.8882 15.6195C20.8879 15.6195 20.8876 15.6195 20.8873 15.6195C20.8869 15.6195 20.8866 15.6195 20.8863 15.6195C20.886 15.6195 20.8857 15.6195 20.8854 15.6195C20.8851 15.6195 20.8848 15.6195 20.8845 15.6195C20.8842 15.6195 20.8839 15.6195 20.8836 15.6195C20.8833 15.6195 20.883 15.6195 20.8826 15.6195C20.8823 15.6195 20.882 15.6195 20.8817 15.6195C20.8814 15.6195 20.8811 15.6195 20.8808 15.6195C20.8805 15.6195 20.8802 15.6195 20.8799 15.6195C20.8796 15.6195 20.8793 15.6195 20.879 15.6195C20.8787 15.6195 20.8784 15.6195 20.878 15.6195C20.8777 15.6195 20.8774 15.6195 20.8771 15.6195C20.8768 15.6195 20.8765 15.6195 20.8762 15.6195C20.8759 15.6195 20.8756 15.6195 20.8753 15.6195C20.875 15.6195 20.8747 15.6195 20.8744 15.6195C20.8741 15.6195 20.8738 15.6195 20.8735 15.6195C20.8731 15.6195 20.8728 15.6195 20.8725 15.6195C20.8722 15.6195 20.8719 15.6195 20.8716 15.6195C20.8713 15.6195 20.871 15.6195 20.8707 15.6195C20.8704 15.6195 20.8701 15.6195 20.8698 15.6195C20.8695 15.6195 20.8692 15.6195 20.8689 15.6195C20.8686 15.6195 20.8682 15.6195 20.8679 15.6195C20.8676 15.6195 20.8673 15.6195 20.867 15.6195C20.8667 15.6195 20.8664 15.6195 20.8661 15.6195C20.8658 15.6195 20.8655 15.6195 20.8652 15.6195C20.8649 15.6195 20.8646 15.6195 20.8643 15.6195C20.864 15.6195 20.8637 15.6195 20.8634 15.6195C20.8631 15.6195 20.8627 15.6195 20.8624 15.6195C20.8621 15.6195 20.8618 15.6195 20.8615 15.6195C20.8612 15.6195 20.8609 15.6195 20.8606 15.6195C20.8603 15.6195 20.86 15.6195 20.8597 15.6195C20.8594 15.6195 20.8591 15.6195 20.8588 15.6195C20.8585 15.6195 20.8582 15.6195 20.8579 15.6195C20.8576 15.6195 20.8573 15.6195 20.8569 15.6195C20.8566 15.6195 20.8563 15.6195 20.856 15.6195C20.8557 15.6195 20.8554 15.6195 20.8551 15.6195C20.8548 15.6195 20.8545 15.6195 20.8542 15.6195C20.8539 15.6195 20.8536 15.6195 20.8533 15.6195C20.853 15.6195 20.8527 15.6195 20.8524 15.6195C20.8521 15.6195 20.8518 15.6195 20.8515 15.6195C20.8512 15.6195 20.8508 15.6195 20.8505 15.6195C20.8502 15.6195 20.8499 15.6195 20.8496 15.6195C20.8493 15.6195 20.849 15.6195 20.8487 15.6195C20.8484 15.6195 20.8481 15.6195 20.8478 15.6195C20.8475 15.6195 20.8472 15.6195 20.8469 15.6195C20.8466 15.6195 20.8463 15.6195 20.846 15.6195C20.8457 15.6195 20.8454 15.6195 20.8451 15.6195C20.8448 15.6195 20.8445 15.6195 20.8442 15.6195C20.8438 15.6195 20.8435 15.6195 20.8432 15.6195C20.8429 15.6195 20.8426 15.6195 20.8423 15.6195C20.842 15.6195 20.8417 15.6195 20.8414 15.6195C20.8411 15.6195 20.8408 15.6195 20.8405 15.6195C20.8402 15.6195 20.8399 15.6195 20.8396 15.6195C20.8393 15.6195 20.839 15.6195 20.8387 15.6195C20.8384 15.6195 20.8381 15.6195 20.8378 15.6195C20.8375 15.6195 20.8372 15.6195 20.8369 15.6195C20.8366 15.6195 20.8362 15.6195 20.8359 15.6195C20.8356 15.6195 20.8353 15.6195 20.835 15.6195C20.8347 15.6195 20.8344 15.6195 20.8341 15.6195C20.8338 15.6195 20.8335 15.6195 20.8332 15.6195C20.8329 15.6195 20.8326 15.6195 20.8323 15.6195C20.832 15.6195 20.8317 15.6195 20.8314 15.6195C20.8311 15.6195 20.8308 15.6195 20.8305 15.6195C20.8302 15.6195 20.8299 15.6195 20.8296 15.6195C20.8293 15.6195 20.829 15.6195 20.8287 15.6195C20.8284 15.6195 20.8281 15.6195 20.8278 15.6195C20.8275 15.6195 20.8271 15.6195 20.8268 15.6195C20.8265 15.6195 20.8262 15.6195 20.8259 15.6195C20.8256 15.6195 20.8253 15.6195 20.825 15.6195C20.8247 15.6195 20.8244 15.6195 20.8241 15.6195C20.8238 15.6195 20.8235 15.6195 20.8232 15.6195C20.8229 15.6195 20.8226 15.6195 20.8223 15.6195C20.822 15.6195 20.8217 15.6195 20.8214 15.6195C20.8211 15.6195 20.8208 15.6195 20.8205 15.6195C20.8202 15.6195 20.8199 15.6195 20.8196 15.6195C20.8193 15.6195 20.819 15.6195 20.8187 15.6195C20.8184 15.6195 20.8181 15.6195 20.8178 15.6195C20.8175 15.6195 20.8172 15.6195 20.8169 15.6195C20.8166 15.6195 20.8163 15.6195 20.8159 15.6195C20.8156 15.6195 20.8153 15.6195 20.815 15.6195C20.8147 15.6195 20.8144 15.6195 20.8141 15.6195C20.8138 15.6195 20.8135 15.6195 20.8132 15.6195C20.8129 15.6195 20.8126 15.6195 20.8123 15.6195C20.812 15.6195 20.8117 15.6195 20.8114 15.6195C20.8111 15.6195 20.8108 15.6195 20.8105 15.6195C20.8102 15.6195 20.8099 15.6195 20.8096 15.6195C20.8093 15.6195 20.809 15.6195 20.8087 15.6195C20.8084 15.6195 20.8081 15.6195 20.8078 15.6195C20.8075 15.6195 20.8072 15.6195 20.8069 15.6195C20.8066 15.6195 20.8063 15.6195 20.806 15.6195C20.8057 15.6195 20.8054 15.6195 20.8051 15.6195C20.8048 15.6195 20.8045 15.6195 20.8042 15.6195C20.8039 15.6195 20.8036 15.6195 20.8033 15.6195C20.803 15.6195 20.8027 15.6195 20.8024 15.6195C20.8021 15.6195 20.8018 15.6195 20.8015 15.6195C20.8012 15.6195 20.8009 15.6195 20.8006 15.6195C20.8003 15.6195 20.8 15.6195 20.7997 15.6195C20.7994 15.6195 20.7991 15.6195 20.7988 15.6195C20.7985 15.6195 20.7981 15.6195 20.7978 15.6195C20.7975 15.6195 20.7972 15.6195 20.7969 15.6195C20.7966 15.6195 20.7963 15.6195 20.796 15.6195C20.7957 15.6195 20.7954 15.6195 20.7951 15.6195C20.7948 15.6195 20.7945 15.6195 20.7942 15.6195C20.7939 15.6195 20.7936 15.6195 20.7933 15.6195C20.793 15.6195 20.7927 15.6195 20.7924 15.6195C20.7921 15.6195 20.7918 15.6195 20.7915 15.6195C20.7912 15.6195 20.7909 15.6195 20.7906 15.6195C20.7903 15.6195 20.79 15.6195 20.7897 15.6195C20.7894 15.6195 20.7891 15.6195 20.7888 15.6195C20.7885 15.6195 20.7882 15.6195 20.7879 15.6195C20.7876 15.6195 20.7873 15.6195 20.787 15.6195C20.7867 15.6195 20.7864 15.6195 20.7861 15.6195C20.7858 15.6195 20.7855 15.6195 20.7852 15.6195C20.7849 15.6195 20.7846 15.6195 20.7843 15.6195C20.784 15.6195 20.7837 15.6195 20.7834 15.6195C20.7831 15.6195 20.7828 15.6195 20.7825 15.6195C20.7822 15.6195 20.7819 15.6195 20.7816 15.6195C20.7813 15.6195 20.781 15.6195 20.7807 15.6195C20.7804 15.6195 20.7801 15.6195 20.7798 15.6195C20.7795 15.6195 20.7792 15.6195 20.7789 15.6195C20.7786 15.6195 20.7783 15.6195 20.778 15.6195C20.7777 15.6195 20.7774 15.6195 20.7771 15.6195C20.7768 15.6195 20.7765 15.6195 20.7762 15.6195C20.7759 15.6195 20.7756 15.6195 20.7753 15.6195C20.775 15.6195 20.7747 15.6195 20.7744 15.6195C20.7741 15.6195 20.7738 15.6195 20.7735 15.6195C20.7732 15.6195 20.7729 15.6195 20.7726 15.6195C20.7723 15.6195 20.772 15.6195 20.7717 15.6195C20.7714 15.6195 20.7711 15.6195 20.7708 15.6195C20.7705 15.6195 20.7702 15.6195 20.7699 15.6195C20.7696 15.6195 20.7693 15.6195 20.769 15.6195C20.7687 15.6195 20.7684 15.6195 20.7681 15.6195C20.7678 15.6195 20.7675 15.6195 20.7672 15.6195C20.7669 15.6195 20.7667 15.6195 20.7664 15.6195C20.7661 15.6195 20.7658 15.6195 20.7655 15.6195C20.7652 15.6195 20.7649 15.6195 20.7646 15.6195C20.7643 15.6195 20.764 15.6195 20.7637 15.6195C20.7634 15.6195 20.7631 15.6195 20.7628 15.6195C20.7625 15.6195 20.7622 15.6195 20.7619 15.6195C20.7616 15.6195 20.7613 15.6195 20.761 15.6195C20.7607 15.6195 20.7604 15.6195 20.7601 15.6195C20.7598 15.6195 20.7595 15.6195 20.7592 15.6195C20.7589 15.6195 20.7586 15.6195 20.7583 15.6195C20.758 15.6195 20.7577 15.6195 20.7574 15.6195C20.7571 15.6195 20.7568 15.6195 20.7565 15.6195C20.7562 15.6195 20.7559 15.6195 20.7556 15.6195C20.7553 15.6195 20.755 15.6195 20.7547 15.6195C20.7544 15.6195 20.7541 15.6195 20.7538 15.6195C20.7535 15.6195 20.7532 15.6195 20.7529 15.6195C20.7526 15.6195 20.7523 15.6195 20.752 15.6195C20.7517 15.6195 20.7514 15.6195 20.7511 15.6195C20.7508 15.6195 20.7505 15.6195 20.7502 15.6195C20.7499 15.6195 20.7496 15.6195 20.7493 15.6195C20.7491 15.6195 20.7488 15.6195 20.7485 15.6195C20.7482 15.6195 20.7479 15.6195 20.7476 15.6195C20.7473 15.6195 20.747 15.6195 20.7467 15.6195C20.7464 15.6195 20.7461 15.6195 20.7458 15.6195C20.7455 15.6195 20.7452 15.6195 20.7449 15.6195C20.7446 15.6195 20.7443 15.6195 20.744 15.6195C20.7437 15.6195 20.7434 15.6195 20.7431 15.6195C20.7428 15.6195 20.7425 15.6195 20.7422 15.6195C20.7419 15.6195 20.7416 15.6195 20.7413 15.6195C20.741 15.6195 20.7407 15.6195 20.7404 15.6195C20.7401 15.6195 20.7398 15.6195 20.7395 15.6195C20.7392 15.6195 20.7389 15.6195 20.7386 15.6195C20.7383 15.6195 20.7381 15.6195 20.7378 15.6195C20.7375 15.6195 20.7372 15.6195 20.7369 15.6195C20.7366 15.6195 20.7363 15.6195 20.736 15.6195C20.7357 15.6195 20.7354 15.6195 20.7351 15.6195C20.7348 15.6195 20.7345 15.6195 20.7342 15.6195C20.7339 15.6195 20.7336 15.6195 20.7333 15.6195C20.733 15.6195 20.7327 15.6195 20.7324 15.6195C20.7321 15.6195 20.7318 15.6195 20.7315 15.6195C20.7312 15.6195 20.7309 15.6195 20.7306 15.6195C20.7303 15.6195 20.73 15.6195 20.7297 15.6195C20.7294 15.6195 20.7292 15.6195 20.7289 15.6195C20.7286 15.6195 20.7283 15.6195 20.728 15.6195C20.7277 15.6195 20.7274 15.6195 20.7271 15.6195C20.7268 15.6195 20.7265 15.6195 20.7262 15.6195C20.7259 15.6195 20.7256 15.6195 20.7253 15.6195C20.725 15.6195 20.7247 15.6195 20.7244 15.6195C20.7241 15.6195 20.7238 15.6195 20.7235 15.6195C20.7232 15.6195 20.7229 15.6195 20.7226 15.6195C20.7223 15.6195 20.722 15.6195 20.7218 15.6195C20.7215 15.6195 20.7212 15.6195 20.7209 15.6195C20.7206 15.6195 20.7203 15.6195 20.72 15.6195C20.7197 15.6195 20.7194 15.6195 20.7191 15.6195C20.7188 15.6195 20.7185 15.6195 20.7182 15.6195C20.7179 15.6195 20.7176 15.6195 20.7173 15.6195C20.717 15.6195 20.7167 15.6195 20.7164 15.6195C20.7161 15.6195 20.7158 15.6195 20.7155 15.6195C20.7152 15.6195 20.715 15.6195 20.7147 15.6195C20.7144 15.6195 20.7141 15.6195 20.7138 15.6195C20.7135 15.6195 20.7132 15.6195 20.7129 15.6195C20.7126 15.6195 20.7123 15.6195 20.712 15.6195C20.7117 15.6195 20.7114 15.6195 20.7111 15.6195C20.7108 15.6195 20.7105 15.6195 20.7102 15.6195C20.7099 15.6195 20.7096 15.6195 20.7093 15.6195C20.7091 15.6195 20.7088 15.6195 20.7085 15.6195C20.7082 15.6195 20.7079 15.6195 20.7076 15.6195C20.7073 15.6195 20.707 15.6195 20.7067 15.6195C20.7064 15.6195 20.7061 15.6195 20.7058 15.6195C20.7055 15.6195 20.7052 15.6195 20.7049 15.6195C20.7046 15.6195 20.7043 15.6195 20.704 15.6195C20.7037 15.6195 20.7035 15.6195 20.7032 15.6195C20.7029 15.6195 20.7026 15.6195 20.7023 15.6195C20.702 15.6195 20.7017 15.6195 20.7014 15.6195C20.7011 15.6195 20.7008 15.6195 20.7005 15.6195C20.7002 15.6195 20.6999 15.6195 20.6996 15.6195C20.6993 15.6195 20.699 15.6195 20.6987 15.6195C20.6984 15.6195 20.6982 15.6195 20.6979 15.6195C20.6976 15.6195 20.6973 15.6195 20.697 15.6195C20.6967 15.6195 20.6964 15.6195 20.6961 15.6195C20.6958 15.6195 20.6955 15.6195 20.6952 15.6195C20.6949 15.6195 20.6946 15.6195 20.6943 15.6195C20.694 15.6195 20.6937 15.6195 20.6935 15.6195C20.6932 15.6195 20.6929 15.6195 20.6926 15.6195C20.6923 15.6195 20.692 15.6195 20.6917 15.6195C20.6914 15.6195 20.6911 15.6195 20.6908 15.6195C20.6905 15.6195 20.6902 15.6195 20.6899 15.6195C20.6896 15.6195 20.6893 15.6195 20.689 15.6195C20.6888 15.6195 20.6885 15.6195 20.6882 15.6195C20.6879 15.6195 20.6876 15.6195 20.6873 15.6195C20.687 15.6195 20.6867 15.6195 20.6864 15.6195C20.6861 15.6195 20.6858 15.6195 20.6855 15.6195C20.6852 15.6195 20.6849 15.6195 20.6846 15.6195C20.6844 15.6195 20.6841 15.6195 20.6838 15.6195C20.6835 15.6195 20.6832 15.6195 20.6829 15.6195C20.6826 15.6195 20.6823 15.6195 20.682 15.6195C20.6817 15.6195 20.6814 15.6195 20.6811 15.6195C20.6808 15.6195 20.6805 15.6195 20.6802 15.6195C20.68 15.6195 20.6797 15.6195 20.6794 15.6195C20.6791 15.6195 20.6788 15.6195 20.6785 15.6195C20.6782 15.6195 20.6779 15.6195 20.6776 15.6195C20.6773 15.6195 20.677 15.6195 20.6767 15.6195C20.6764 15.6195 20.6762 15.6195 20.6759 15.6195C20.6756 15.6195 20.6753 15.6195 20.675 15.6195C20.6747 15.6195 20.6744 15.6195 20.6741 15.6195C20.6738 15.6195 20.6735 15.6195 20.6732 15.6195C20.6729 15.6195 20.6726 15.6195 20.6723 15.6195C20.6721 15.6195 20.6718 15.6195 20.6715 15.6195C20.6712 15.6195 20.6709 15.6195 20.6706 15.6195C20.6703 15.6195 20.67 15.6195 20.6697 15.6195C20.6694 15.6195 20.6691 15.6195 20.6688 15.6195C20.6686 15.6195 20.6683 15.6195 20.668 15.6195C20.6677 15.6195 20.6674 15.6195 20.6671 15.6195C20.6668 15.6195 20.6665 15.6195 20.6662 15.6195C20.6659 15.6195 20.6656 15.6195 20.6653 15.6195C20.665 15.6195 20.6648 15.6195 20.6645 15.6195C20.6642 15.6195 20.6639 15.6195 20.6636 15.6195C20.6633 15.6195 20.663 15.6195 20.6627 15.6195C20.6624 15.6195 20.6621 15.6195 20.6618 15.6195C20.6615 15.6195 20.6613 15.6195 20.661 15.6195C20.6607 15.6195 20.6604 15.6195 20.6601 15.6195C20.6598 15.6195 20.6595 15.6195 20.6592 15.6195C20.6589 15.6195 20.6586 15.6195 20.6583 15.6195C20.6581 15.6195 20.6578 15.6195 20.6575 15.6195C20.6572 15.6195 20.6569 15.6195 20.6566 15.6195C20.6563 15.6195 20.656 15.6195 20.6557 15.6195C20.6554 15.6195 20.6551 15.6195 20.6548 15.6195C20.6546 15.6195 20.6543 15.6195 20.654 15.6195C20.6537 15.6195 20.6534 15.6195 20.6531 15.6195C20.6528 15.6195 20.6525 15.6195 20.6522 15.6195C20.6519 15.6195 20.6516 15.6195 20.6514 15.6195C20.6511 15.6195 20.6508 15.6195 20.6505 15.6195C20.6502 15.6195 20.6499 15.6195 20.6496 15.6195C20.6493 15.6195 20.649 15.6195 20.6487 15.6195C20.6484 15.6195 20.6482 15.6195 20.6479 15.6195C20.6476 15.6195 20.6473 15.6195 20.647 15.6195C20.6467 15.6195 20.6464 15.6195 20.6461 15.6195C20.6458 15.6195 20.6455 15.6195 20.6453 15.6195C20.645 15.6195 20.6447 15.6195 20.6444 15.6195C20.6441 15.6195 20.6438 15.6195 20.6435 15.6195C20.6432 15.6195 20.6429 15.6195 20.6426 15.6195C20.6423 15.6195 20.6421 15.6195 20.6418 15.6195C20.6415 15.6195 20.6412 15.6195 20.6409 15.6195C20.6406 15.6195 20.6403 15.6195 20.64 15.6195C20.6397 15.6195 20.6394 15.6195 20.6392 15.6195C20.6389 15.6195 20.6386 15.6195 20.6383 15.6195C20.638 15.6195 20.6377 15.6195 20.6374 15.6195C20.6371 15.6195 20.6368 15.6195 20.6366 15.6195C20.6363 15.6195 20.636 15.6195 20.6357 15.6195C20.6354 15.6195 20.6351 15.6195 20.6348 15.6195C20.6345 15.6195 20.6342 15.6195 20.6339 15.6195C20.6337 15.6195 20.6334 15.6195 20.6331 15.6195C20.6328 15.6195 20.6325 15.6195 20.6322 15.6195C20.6319 15.6195 20.6316 15.6195 20.6313 15.6195C20.631 15.6195 20.6308 15.6195 20.6305 15.6195C20.6302 15.6195 20.6299 15.6195 20.6296 15.6195C20.6293 15.6195 20.629 15.6195 20.6287 15.6195C20.6284 15.6195 20.6282 15.6195 20.6279 15.6195C20.6276 15.6195 20.6273 15.6195 20.627 15.6195C20.6267 15.6195 20.6264 15.6195 20.6261 15.6195C20.6258 15.6195 20.6256 15.6195 20.6253 15.6195C20.625 15.6195 20.6247 15.6195 20.6244 15.6195C20.6241 15.6195 20.6238 15.6195 20.6235 15.6195C20.6232 15.6195 20.623 15.6195 20.6227 15.6195C20.6224 15.6195 20.6221 15.6195 20.6218 15.6195C20.6215 15.6195 20.6212 15.6195 20.6209 15.6195C20.6206 15.6195 20.6204 15.6195 20.6201 15.6195C20.6198 15.6195 20.6195 15.6195 20.6192 15.6195C20.6189 15.6195 20.6186 15.6195 20.6183 15.6195C20.618 15.6195 20.6178 15.6195 20.6175 15.6195C20.6172 15.6195 20.6169 15.6195 20.6166 15.6195C20.6163 15.6195 20.616 15.6195 20.6157 15.6195C20.6155 15.6195 20.6152 15.6195 20.6149 15.6195C20.6146 15.6195 20.6143 15.6195 20.614 15.6195C20.6137 15.6195 20.6134 15.6195 20.6131 15.6195C20.6129 15.6195 20.6126 15.6195 20.6123 15.6195C20.612 15.6195 20.6117 15.6195 20.6114 15.6195C20.6111 15.6195 20.6108 15.6195 20.6106 15.6195C20.6103 15.6195 20.61 15.6195 20.6097 15.6195C20.6094 15.6195 20.6091 15.6195 20.6088 15.6195C20.6085 15.6195 20.6083 15.6195 20.608 15.6195C20.6077 15.6195 20.6074 15.6195 20.6071 15.6195C20.6068 15.6195 20.6065 15.6195 20.6062 15.6195C20.6059 15.6195 20.6057 15.6195 20.6054 15.6195C20.6051 15.6195 20.6048 15.6195 20.6045 15.6195C20.6042 15.6195 20.6039 15.6195 20.6036 15.6195C20.6034 15.6195 20.6031 15.6195 20.6028 15.6195C20.6025 15.6195 20.6022 15.6195 20.6019 15.6195C20.6016 15.6195 20.6014 15.6195 20.6011 15.6195C20.6008 15.6195 20.6005 15.6195 20.6002 15.6195C20.5999 15.6195 20.5996 15.6195 20.5993 15.6195C20.5991 15.6195 20.5988 15.6195 20.5985 15.6195C20.5982 15.6195 20.5979 15.6195 20.5976 15.6195C20.5973 15.6195 20.597 15.6195 20.5968 15.6195C20.5965 15.6195 20.5962 15.6195 20.5959 15.6195C20.5956 15.6195 20.5953 15.6195 20.595 15.6195C20.5947 15.6195 20.5945 15.6195 20.5942 15.6195C20.5939 15.6195 20.5936 15.6195 20.5933 15.6195C20.593 15.6195 20.5927 15.6195 20.5925 15.6195C20.5922 15.6195 20.5919 15.6195 20.5916 15.6195C20.5913 15.6195 20.591 15.6195 20.5907 15.6195C20.5904 15.6195 20.5902 15.6195 20.5899 15.6195C20.5896 15.6195 20.5893 15.6195 20.589 15.6195C20.5887 15.6195 20.5884 15.6195 20.5882 15.6195C20.5879 15.6195 20.5876 15.6195 20.5873 15.6195C20.587 15.6195 20.5867 15.6195 20.5864 15.6195C20.5862 15.6195 20.5859 15.6195 20.5856 15.6195C20.5853 15.6195 20.585 15.6195 20.5847 15.6195C20.5844 15.6195 20.5842 15.6195 20.5839 15.6195C20.5836 15.6195 20.5833 15.6195 20.583 15.6195C20.5827 15.6195 20.5824 15.6195 20.5821 15.6195C20.5819 15.6195 20.5816 15.6195 20.5813 15.6195C20.581 15.6195 20.5807 15.6195 20.5804 15.6195C20.5801 15.6195 20.5799 15.6195 20.5796 15.6195C20.5793 15.6195 20.579 15.6195 20.5787 15.6195C20.5784 15.6195 20.5781 15.6195 20.5779 15.6195C20.5776 15.6195 20.5773 15.6195 20.577 15.6195C20.5767 15.6195 20.5764 15.6195 20.5762 15.6195C20.5759 15.6195 20.5756 15.6195 20.5753 15.6195V17.6195C20.5756 17.6195 20.5759 17.6195 20.5762 17.6195C20.5764 17.6195 20.5767 17.6195 20.577 17.6195C20.5773 17.6195 20.5776 17.6195 20.5779 17.6195C20.5781 17.6195 20.5784 17.6195 20.5787 17.6195C20.579 17.6195 20.5793 17.6195 20.5796 17.6195C20.5799 17.6195 20.5801 17.6195 20.5804 17.6195C20.5807 17.6195 20.581 17.6195 20.5813 17.6195C20.5816 17.6195 20.5819 17.6195 20.5821 17.6195C20.5824 17.6195 20.5827 17.6195 20.583 17.6195C20.5833 17.6195 20.5836 17.6195 20.5839 17.6195C20.5842 17.6195 20.5844 17.6195 20.5847 17.6195C20.585 17.6195 20.5853 17.6195 20.5856 17.6195C20.5859 17.6195 20.5862 17.6195 20.5864 17.6195C20.5867 17.6195 20.587 17.6195 20.5873 17.6195C20.5876 17.6195 20.5879 17.6195 20.5882 17.6195C20.5884 17.6195 20.5887 17.6195 20.589 17.6195C20.5893 17.6195 20.5896 17.6195 20.5899 17.6195C20.5902 17.6195 20.5904 17.6195 20.5907 17.6195C20.591 17.6195 20.5913 17.6195 20.5916 17.6195C20.5919 17.6195 20.5922 17.6195 20.5925 17.6195C20.5927 17.6195 20.593 17.6195 20.5933 17.6195C20.5936 17.6195 20.5939 17.6195 20.5942 17.6195C20.5945 17.6195 20.5947 17.6195 20.595 17.6195C20.5953 17.6195 20.5956 17.6195 20.5959 17.6195C20.5962 17.6195 20.5965 17.6195 20.5968 17.6195C20.597 17.6195 20.5973 17.6195 20.5976 17.6195C20.5979 17.6195 20.5982 17.6195 20.5985 17.6195C20.5988 17.6195 20.5991 17.6195 20.5993 17.6195C20.5996 17.6195 20.5999 17.6195 20.6002 17.6195C20.6005 17.6195 20.6008 17.6195 20.6011 17.6195C20.6014 17.6195 20.6016 17.6195 20.6019 17.6195C20.6022 17.6195 20.6025 17.6195 20.6028 17.6195C20.6031 17.6195 20.6034 17.6195 20.6036 17.6195C20.6039 17.6195 20.6042 17.6195 20.6045 17.6195C20.6048 17.6195 20.6051 17.6195 20.6054 17.6195C20.6057 17.6195 20.6059 17.6195 20.6062 17.6195C20.6065 17.6195 20.6068 17.6195 20.6071 17.6195C20.6074 17.6195 20.6077 17.6195 20.608 17.6195C20.6083 17.6195 20.6085 17.6195 20.6088 17.6195C20.6091 17.6195 20.6094 17.6195 20.6097 17.6195C20.61 17.6195 20.6103 17.6195 20.6106 17.6195C20.6108 17.6195 20.6111 17.6195 20.6114 17.6195C20.6117 17.6195 20.612 17.6195 20.6123 17.6195C20.6126 17.6195 20.6129 17.6195 20.6131 17.6195C20.6134 17.6195 20.6137 17.6195 20.614 17.6195C20.6143 17.6195 20.6146 17.6195 20.6149 17.6195C20.6152 17.6195 20.6155 17.6195 20.6157 17.6195C20.616 17.6195 20.6163 17.6195 20.6166 17.6195C20.6169 17.6195 20.6172 17.6195 20.6175 17.6195C20.6178 17.6195 20.618 17.6195 20.6183 17.6195C20.6186 17.6195 20.6189 17.6195 20.6192 17.6195C20.6195 17.6195 20.6198 17.6195 20.6201 17.6195C20.6204 17.6195 20.6206 17.6195 20.6209 17.6195C20.6212 17.6195 20.6215 17.6195 20.6218 17.6195C20.6221 17.6195 20.6224 17.6195 20.6227 17.6195C20.623 17.6195 20.6232 17.6195 20.6235 17.6195C20.6238 17.6195 20.6241 17.6195 20.6244 17.6195C20.6247 17.6195 20.625 17.6195 20.6253 17.6195C20.6256 17.6195 20.6258 17.6195 20.6261 17.6195C20.6264 17.6195 20.6267 17.6195 20.627 17.6195C20.6273 17.6195 20.6276 17.6195 20.6279 17.6195C20.6282 17.6195 20.6284 17.6195 20.6287 17.6195C20.629 17.6195 20.6293 17.6195 20.6296 17.6195C20.6299 17.6195 20.6302 17.6195 20.6305 17.6195C20.6308 17.6195 20.631 17.6195 20.6313 17.6195C20.6316 17.6195 20.6319 17.6195 20.6322 17.6195C20.6325 17.6195 20.6328 17.6195 20.6331 17.6195C20.6334 17.6195 20.6337 17.6195 20.6339 17.6195C20.6342 17.6195 20.6345 17.6195 20.6348 17.6195C20.6351 17.6195 20.6354 17.6195 20.6357 17.6195C20.636 17.6195 20.6363 17.6195 20.6366 17.6195C20.6368 17.6195 20.6371 17.6195 20.6374 17.6195C20.6377 17.6195 20.638 17.6195 20.6383 17.6195C20.6386 17.6195 20.6389 17.6195 20.6392 17.6195C20.6394 17.6195 20.6397 17.6195 20.64 17.6195C20.6403 17.6195 20.6406 17.6195 20.6409 17.6195C20.6412 17.6195 20.6415 17.6195 20.6418 17.6195C20.6421 17.6195 20.6423 17.6195 20.6426 17.6195C20.6429 17.6195 20.6432 17.6195 20.6435 17.6195C20.6438 17.6195 20.6441 17.6195 20.6444 17.6195C20.6447 17.6195 20.645 17.6195 20.6453 17.6195C20.6455 17.6195 20.6458 17.6195 20.6461 17.6195C20.6464 17.6195 20.6467 17.6195 20.647 17.6195C20.6473 17.6195 20.6476 17.6195 20.6479 17.6195C20.6482 17.6195 20.6484 17.6195 20.6487 17.6195C20.649 17.6195 20.6493 17.6195 20.6496 17.6195C20.6499 17.6195 20.6502 17.6195 20.6505 17.6195C20.6508 17.6195 20.6511 17.6195 20.6514 17.6195C20.6516 17.6195 20.6519 17.6195 20.6522 17.6195C20.6525 17.6195 20.6528 17.6195 20.6531 17.6195C20.6534 17.6195 20.6537 17.6195 20.654 17.6195C20.6543 17.6195 20.6546 17.6195 20.6548 17.6195C20.6551 17.6195 20.6554 17.6195 20.6557 17.6195C20.656 17.6195 20.6563 17.6195 20.6566 17.6195C20.6569 17.6195 20.6572 17.6195 20.6575 17.6195C20.6578 17.6195 20.6581 17.6195 20.6583 17.6195C20.6586 17.6195 20.6589 17.6195 20.6592 17.6195C20.6595 17.6195 20.6598 17.6195 20.6601 17.6195C20.6604 17.6195 20.6607 17.6195 20.661 17.6195C20.6613 17.6195 20.6615 17.6195 20.6618 17.6195C20.6621 17.6195 20.6624 17.6195 20.6627 17.6195C20.663 17.6195 20.6633 17.6195 20.6636 17.6195C20.6639 17.6195 20.6642 17.6195 20.6645 17.6195C20.6648 17.6195 20.665 17.6195 20.6653 17.6195C20.6656 17.6195 20.6659 17.6195 20.6662 17.6195C20.6665 17.6195 20.6668 17.6195 20.6671 17.6195C20.6674 17.6195 20.6677 17.6195 20.668 17.6195C20.6683 17.6195 20.6686 17.6195 20.6688 17.6195C20.6691 17.6195 20.6694 17.6195 20.6697 17.6195C20.67 17.6195 20.6703 17.6195 20.6706 17.6195C20.6709 17.6195 20.6712 17.6195 20.6715 17.6195C20.6718 17.6195 20.6721 17.6195 20.6723 17.6195C20.6726 17.6195 20.6729 17.6195 20.6732 17.6195C20.6735 17.6195 20.6738 17.6195 20.6741 17.6195C20.6744 17.6195 20.6747 17.6195 20.675 17.6195C20.6753 17.6195 20.6756 17.6195 20.6759 17.6195C20.6762 17.6195 20.6764 17.6195 20.6767 17.6195C20.677 17.6195 20.6773 17.6195 20.6776 17.6195C20.6779 17.6195 20.6782 17.6195 20.6785 17.6195C20.6788 17.6195 20.6791 17.6195 20.6794 17.6195C20.6797 17.6195 20.68 17.6195 20.6802 17.6195C20.6805 17.6195 20.6808 17.6195 20.6811 17.6195C20.6814 17.6195 20.6817 17.6195 20.682 17.6195C20.6823 17.6195 20.6826 17.6195 20.6829 17.6195C20.6832 17.6195 20.6835 17.6195 20.6838 17.6195C20.6841 17.6195 20.6844 17.6195 20.6846 17.6195C20.6849 17.6195 20.6852 17.6195 20.6855 17.6195C20.6858 17.6195 20.6861 17.6195 20.6864 17.6195C20.6867 17.6195 20.687 17.6195 20.6873 17.6195C20.6876 17.6195 20.6879 17.6195 20.6882 17.6195C20.6885 17.6195 20.6888 17.6195 20.689 17.6195C20.6893 17.6195 20.6896 17.6195 20.6899 17.6195C20.6902 17.6195 20.6905 17.6195 20.6908 17.6195C20.6911 17.6195 20.6914 17.6195 20.6917 17.6195C20.692 17.6195 20.6923 17.6195 20.6926 17.6195C20.6929 17.6195 20.6932 17.6195 20.6935 17.6195C20.6937 17.6195 20.694 17.6195 20.6943 17.6195C20.6946 17.6195 20.6949 17.6195 20.6952 17.6195C20.6955 17.6195 20.6958 17.6195 20.6961 17.6195C20.6964 17.6195 20.6967 17.6195 20.697 17.6195C20.6973 17.6195 20.6976 17.6195 20.6979 17.6195C20.6982 17.6195 20.6984 17.6195 20.6987 17.6195C20.699 17.6195 20.6993 17.6195 20.6996 17.6195C20.6999 17.6195 20.7002 17.6195 20.7005 17.6195C20.7008 17.6195 20.7011 17.6195 20.7014 17.6195C20.7017 17.6195 20.702 17.6195 20.7023 17.6195C20.7026 17.6195 20.7029 17.6195 20.7032 17.6195C20.7035 17.6195 20.7037 17.6195 20.704 17.6195C20.7043 17.6195 20.7046 17.6195 20.7049 17.6195C20.7052 17.6195 20.7055 17.6195 20.7058 17.6195C20.7061 17.6195 20.7064 17.6195 20.7067 17.6195C20.707 17.6195 20.7073 17.6195 20.7076 17.6195C20.7079 17.6195 20.7082 17.6195 20.7085 17.6195C20.7088 17.6195 20.7091 17.6195 20.7093 17.6195C20.7096 17.6195 20.7099 17.6195 20.7102 17.6195C20.7105 17.6195 20.7108 17.6195 20.7111 17.6195C20.7114 17.6195 20.7117 17.6195 20.712 17.6195C20.7123 17.6195 20.7126 17.6195 20.7129 17.6195C20.7132 17.6195 20.7135 17.6195 20.7138 17.6195C20.7141 17.6195 20.7144 17.6195 20.7147 17.6195C20.715 17.6195 20.7152 17.6195 20.7155 17.6195C20.7158 17.6195 20.7161 17.6195 20.7164 17.6195C20.7167 17.6195 20.717 17.6195 20.7173 17.6195C20.7176 17.6195 20.7179 17.6195 20.7182 17.6195C20.7185 17.6195 20.7188 17.6195 20.7191 17.6195C20.7194 17.6195 20.7197 17.6195 20.72 17.6195C20.7203 17.6195 20.7206 17.6195 20.7209 17.6195C20.7212 17.6195 20.7215 17.6195 20.7218 17.6195C20.722 17.6195 20.7223 17.6195 20.7226 17.6195C20.7229 17.6195 20.7232 17.6195 20.7235 17.6195C20.7238 17.6195 20.7241 17.6195 20.7244 17.6195C20.7247 17.6195 20.725 17.6195 20.7253 17.6195C20.7256 17.6195 20.7259 17.6195 20.7262 17.6195C20.7265 17.6195 20.7268 17.6195 20.7271 17.6195C20.7274 17.6195 20.7277 17.6195 20.728 17.6195C20.7283 17.6195 20.7286 17.6195 20.7289 17.6195C20.7292 17.6195 20.7294 17.6195 20.7297 17.6195C20.73 17.6195 20.7303 17.6195 20.7306 17.6195C20.7309 17.6195 20.7312 17.6195 20.7315 17.6195C20.7318 17.6195 20.7321 17.6195 20.7324 17.6195C20.7327 17.6195 20.733 17.6195 20.7333 17.6195C20.7336 17.6195 20.7339 17.6195 20.7342 17.6195C20.7345 17.6195 20.7348 17.6195 20.7351 17.6195C20.7354 17.6195 20.7357 17.6195 20.736 17.6195C20.7363 17.6195 20.7366 17.6195 20.7369 17.6195C20.7372 17.6195 20.7375 17.6195 20.7378 17.6195C20.7381 17.6195 20.7383 17.6195 20.7386 17.6195C20.7389 17.6195 20.7392 17.6195 20.7395 17.6195C20.7398 17.6195 20.7401 17.6195 20.7404 17.6195C20.7407 17.6195 20.741 17.6195 20.7413 17.6195C20.7416 17.6195 20.7419 17.6195 20.7422 17.6195C20.7425 17.6195 20.7428 17.6195 20.7431 17.6195C20.7434 17.6195 20.7437 17.6195 20.744 17.6195C20.7443 17.6195 20.7446 17.6195 20.7449 17.6195C20.7452 17.6195 20.7455 17.6195 20.7458 17.6195C20.7461 17.6195 20.7464 17.6195 20.7467 17.6195C20.747 17.6195 20.7473 17.6195 20.7476 17.6195C20.7479 17.6195 20.7482 17.6195 20.7485 17.6195C20.7488 17.6195 20.7491 17.6195 20.7493 17.6195C20.7496 17.6195 20.7499 17.6195 20.7502 17.6195C20.7505 17.6195 20.7508 17.6195 20.7511 17.6195C20.7514 17.6195 20.7517 17.6195 20.752 17.6195C20.7523 17.6195 20.7526 17.6195 20.7529 17.6195C20.7532 17.6195 20.7535 17.6195 20.7538 17.6195C20.7541 17.6195 20.7544 17.6195 20.7547 17.6195C20.755 17.6195 20.7553 17.6195 20.7556 17.6195C20.7559 17.6195 20.7562 17.6195 20.7565 17.6195C20.7568 17.6195 20.7571 17.6195 20.7574 17.6195C20.7577 17.6195 20.758 17.6195 20.7583 17.6195C20.7586 17.6195 20.7589 17.6195 20.7592 17.6195C20.7595 17.6195 20.7598 17.6195 20.7601 17.6195C20.7604 17.6195 20.7607 17.6195 20.761 17.6195C20.7613 17.6195 20.7616 17.6195 20.7619 17.6195C20.7622 17.6195 20.7625 17.6195 20.7628 17.6195C20.7631 17.6195 20.7634 17.6195 20.7637 17.6195C20.764 17.6195 20.7643 17.6195 20.7646 17.6195C20.7649 17.6195 20.7652 17.6195 20.7655 17.6195C20.7658 17.6195 20.7661 17.6195 20.7664 17.6195C20.7667 17.6195 20.7669 17.6195 20.7672 17.6195C20.7675 17.6195 20.7678 17.6195 20.7681 17.6195C20.7684 17.6195 20.7687 17.6195 20.769 17.6195C20.7693 17.6195 20.7696 17.6195 20.7699 17.6195C20.7702 17.6195 20.7705 17.6195 20.7708 17.6195C20.7711 17.6195 20.7714 17.6195 20.7717 17.6195C20.772 17.6195 20.7723 17.6195 20.7726 17.6195C20.7729 17.6195 20.7732 17.6195 20.7735 17.6195C20.7738 17.6195 20.7741 17.6195 20.7744 17.6195C20.7747 17.6195 20.775 17.6195 20.7753 17.6195C20.7756 17.6195 20.7759 17.6195 20.7762 17.6195C20.7765 17.6195 20.7768 17.6195 20.7771 17.6195C20.7774 17.6195 20.7777 17.6195 20.778 17.6195C20.7783 17.6195 20.7786 17.6195 20.7789 17.6195C20.7792 17.6195 20.7795 17.6195 20.7798 17.6195C20.7801 17.6195 20.7804 17.6195 20.7807 17.6195C20.781 17.6195 20.7813 17.6195 20.7816 17.6195C20.7819 17.6195 20.7822 17.6195 20.7825 17.6195C20.7828 17.6195 20.7831 17.6195 20.7834 17.6195C20.7837 17.6195 20.784 17.6195 20.7843 17.6195C20.7846 17.6195 20.7849 17.6195 20.7852 17.6195C20.7855 17.6195 20.7858 17.6195 20.7861 17.6195C20.7864 17.6195 20.7867 17.6195 20.787 17.6195C20.7873 17.6195 20.7876 17.6195 20.7879 17.6195C20.7882 17.6195 20.7885 17.6195 20.7888 17.6195C20.7891 17.6195 20.7894 17.6195 20.7897 17.6195C20.79 17.6195 20.7903 17.6195 20.7906 17.6195C20.7909 17.6195 20.7912 17.6195 20.7915 17.6195C20.7918 17.6195 20.7921 17.6195 20.7924 17.6195C20.7927 17.6195 20.793 17.6195 20.7933 17.6195C20.7936 17.6195 20.7939 17.6195 20.7942 17.6195C20.7945 17.6195 20.7948 17.6195 20.7951 17.6195C20.7954 17.6195 20.7957 17.6195 20.796 17.6195C20.7963 17.6195 20.7966 17.6195 20.7969 17.6195C20.7972 17.6195 20.7975 17.6195 20.7978 17.6195C20.7981 17.6195 20.7985 17.6195 20.7988 17.6195C20.7991 17.6195 20.7994 17.6195 20.7997 17.6195C20.8 17.6195 20.8003 17.6195 20.8006 17.6195C20.8009 17.6195 20.8012 17.6195 20.8015 17.6195C20.8018 17.6195 20.8021 17.6195 20.8024 17.6195C20.8027 17.6195 20.803 17.6195 20.8033 17.6195C20.8036 17.6195 20.8039 17.6195 20.8042 17.6195C20.8045 17.6195 20.8048 17.6195 20.8051 17.6195C20.8054 17.6195 20.8057 17.6195 20.806 17.6195C20.8063 17.6195 20.8066 17.6195 20.8069 17.6195C20.8072 17.6195 20.8075 17.6195 20.8078 17.6195C20.8081 17.6195 20.8084 17.6195 20.8087 17.6195C20.809 17.6195 20.8093 17.6195 20.8096 17.6195C20.8099 17.6195 20.8102 17.6195 20.8105 17.6195C20.8108 17.6195 20.8111 17.6195 20.8114 17.6195C20.8117 17.6195 20.812 17.6195 20.8123 17.6195C20.8126 17.6195 20.8129 17.6195 20.8132 17.6195C20.8135 17.6195 20.8138 17.6195 20.8141 17.6195C20.8144 17.6195 20.8147 17.6195 20.815 17.6195C20.8153 17.6195 20.8156 17.6195 20.8159 17.6195C20.8163 17.6195 20.8166 17.6195 20.8169 17.6195C20.8172 17.6195 20.8175 17.6195 20.8178 17.6195C20.8181 17.6195 20.8184 17.6195 20.8187 17.6195C20.819 17.6195 20.8193 17.6195 20.8196 17.6195C20.8199 17.6195 20.8202 17.6195 20.8205 17.6195C20.8208 17.6195 20.8211 17.6195 20.8214 17.6195C20.8217 17.6195 20.822 17.6195 20.8223 17.6195C20.8226 17.6195 20.8229 17.6195 20.8232 17.6195C20.8235 17.6195 20.8238 17.6195 20.8241 17.6195C20.8244 17.6195 20.8247 17.6195 20.825 17.6195C20.8253 17.6195 20.8256 17.6195 20.8259 17.6195C20.8262 17.6195 20.8265 17.6195 20.8268 17.6195C20.8271 17.6195 20.8275 17.6195 20.8278 17.6195C20.8281 17.6195 20.8284 17.6195 20.8287 17.6195C20.829 17.6195 20.8293 17.6195 20.8296 17.6195C20.8299 17.6195 20.8302 17.6195 20.8305 17.6195C20.8308 17.6195 20.8311 17.6195 20.8314 17.6195C20.8317 17.6195 20.832 17.6195 20.8323 17.6195C20.8326 17.6195 20.8329 17.6195 20.8332 17.6195C20.8335 17.6195 20.8338 17.6195 20.8341 17.6195C20.8344 17.6195 20.8347 17.6195 20.835 17.6195C20.8353 17.6195 20.8356 17.6195 20.8359 17.6195C20.8362 17.6195 20.8366 17.6195 20.8369 17.6195C20.8372 17.6195 20.8375 17.6195 20.8378 17.6195C20.8381 17.6195 20.8384 17.6195 20.8387 17.6195C20.839 17.6195 20.8393 17.6195 20.8396 17.6195C20.8399 17.6195 20.8402 17.6195 20.8405 17.6195C20.8408 17.6195 20.8411 17.6195 20.8414 17.6195C20.8417 17.6195 20.842 17.6195 20.8423 17.6195C20.8426 17.6195 20.8429 17.6195 20.8432 17.6195C20.8435 17.6195 20.8438 17.6195 20.8442 17.6195C20.8445 17.6195 20.8448 17.6195 20.8451 17.6195C20.8454 17.6195 20.8457 17.6195 20.846 17.6195C20.8463 17.6195 20.8466 17.6195 20.8469 17.6195C20.8472 17.6195 20.8475 17.6195 20.8478 17.6195C20.8481 17.6195 20.8484 17.6195 20.8487 17.6195C20.849 17.6195 20.8493 17.6195 20.8496 17.6195C20.8499 17.6195 20.8502 17.6195 20.8505 17.6195C20.8508 17.6195 20.8512 17.6195 20.8515 17.6195C20.8518 17.6195 20.8521 17.6195 20.8524 17.6195C20.8527 17.6195 20.853 17.6195 20.8533 17.6195C20.8536 17.6195 20.8539 17.6195 20.8542 17.6195C20.8545 17.6195 20.8548 17.6195 20.8551 17.6195C20.8554 17.6195 20.8557 17.6195 20.856 17.6195C20.8563 17.6195 20.8566 17.6195 20.8569 17.6195C20.8573 17.6195 20.8576 17.6195 20.8579 17.6195C20.8582 17.6195 20.8585 17.6195 20.8588 17.6195C20.8591 17.6195 20.8594 17.6195 20.8597 17.6195C20.86 17.6195 20.8603 17.6195 20.8606 17.6195C20.8609 17.6195 20.8612 17.6195 20.8615 17.6195C20.8618 17.6195 20.8621 17.6195 20.8624 17.6195C20.8627 17.6195 20.8631 17.6195 20.8634 17.6195C20.8637 17.6195 20.864 17.6195 20.8643 17.6195C20.8646 17.6195 20.8649 17.6195 20.8652 17.6195C20.8655 17.6195 20.8658 17.6195 20.8661 17.6195C20.8664 17.6195 20.8667 17.6195 20.867 17.6195C20.8673 17.6195 20.8676 17.6195 20.8679 17.6195C20.8682 17.6195 20.8686 17.6195 20.8689 17.6195C20.8692 17.6195 20.8695 17.6195 20.8698 17.6195C20.8701 17.6195 20.8704 17.6195 20.8707 17.6195C20.871 17.6195 20.8713 17.6195 20.8716 17.6195C20.8719 17.6195 20.8722 17.6195 20.8725 17.6195C20.8728 17.6195 20.8731 17.6195 20.8735 17.6195C20.8738 17.6195 20.8741 17.6195 20.8744 17.6195C20.8747 17.6195 20.875 17.6195 20.8753 17.6195C20.8756 17.6195 20.8759 17.6195 20.8762 17.6195C20.8765 17.6195 20.8768 17.6195 20.8771 17.6195C20.8774 17.6195 20.8777 17.6195 20.878 17.6195C20.8784 17.6195 20.8787 17.6195 20.879 17.6195C20.8793 17.6195 20.8796 17.6195 20.8799 17.6195C20.8802 17.6195 20.8805 17.6195 20.8808 17.6195C20.8811 17.6195 20.8814 17.6195 20.8817 17.6195C20.882 17.6195 20.8823 17.6195 20.8826 17.6195C20.883 17.6195 20.8833 17.6195 20.8836 17.6195C20.8839 17.6195 20.8842 17.6195 20.8845 17.6195C20.8848 17.6195 20.8851 17.6195 20.8854 17.6195C20.8857 17.6195 20.886 17.6195 20.8863 17.6195C20.8866 17.6195 20.8869 17.6195 20.8873 17.6195C20.8876 17.6195 20.8879 17.6195 20.8882 17.6195C20.8885 17.6195 20.8888 17.6195 20.8891 17.6195C20.8894 17.6195 20.8897 17.6195 20.89 17.6195C20.8903 17.6195 20.8906 17.6195 20.8909 17.6195C20.8912 17.6195 20.8916 17.6195 20.8919 17.6195C20.8922 17.6195 20.8925 17.6195 20.8928 17.6195C20.8931 17.6195 20.8934 17.6195 20.8937 17.6195C20.894 17.6195 20.8943 17.6195 20.8946 17.6195C20.8949 17.6195 20.8952 17.6195 20.8956 17.6195C20.8959 17.6195 20.8962 17.6195 20.8965 17.6195C20.8968 17.6195 20.8971 17.6195 20.8974 17.6195C20.8977 17.6195 20.898 17.6195 20.8983 17.6195C20.8986 17.6195 20.8989 17.6195 20.8992 17.6195C20.8996 17.6195 20.8999 17.6195 20.9002 17.6195C20.9005 17.6195 20.9008 17.6195 20.9011 17.6195C20.9014 17.6195 20.9017 17.6195 20.902 17.6195C20.9023 17.6195 20.9026 17.6195 20.9029 17.6195C20.9032 17.6195 20.9036 17.6195 20.9039 17.6195C20.9042 17.6195 20.9045 17.6195 20.9048 17.6195C20.9051 17.6195 20.9054 17.6195 20.9057 17.6195C20.906 17.6195 20.9063 17.6195 20.9066 17.6195C20.9069 17.6195 20.9073 17.6195 20.9076 17.6195C20.9079 17.6195 20.9082 17.6195 20.9085 17.6195C20.9088 17.6195 20.9091 17.6195 20.9094 17.6195C20.9097 17.6195 20.91 17.6195 20.9103 17.6195C20.9107 17.6195 20.911 17.6195 20.9113 17.6195C20.9116 17.6195 20.9119 17.6195 20.9122 17.6195C20.9125 17.6195 20.9128 17.6195 20.9131 17.6195C20.9134 17.6195 20.9137 17.6195 20.914 17.6195C20.9144 17.6195 20.9147 17.6195 20.915 17.6195C20.9153 17.6195 20.9156 17.6195 20.9159 17.6195C20.9162 17.6195 20.9165 17.6195 20.9168 17.6195C20.9171 17.6195 20.9174 17.6195 20.9178 17.6195C20.9181 17.6195 20.9184 17.6195 20.9187 17.6195C20.919 17.6195 20.9193 17.6195 20.9196 17.6195C20.9199 17.6195 20.9202 17.6195 20.9205 17.6195C20.9209 17.6195 20.9212 17.6195 20.9215 17.6195C20.9218 17.6195 20.9221 17.6195 20.9224 17.6195C20.9227 17.6195 20.923 17.6195 20.9233 17.6195C20.9236 17.6195 20.9239 17.6195 20.9243 17.6195C20.9246 17.6195 20.9249 17.6195 20.9252 17.6195C20.9255 17.6195 20.9258 17.6195 20.9261 17.6195C20.9264 17.6195 20.9267 17.6195 20.927 17.6195C20.9274 17.6195 20.9277 17.6195 20.928 17.6195C20.9283 17.6195 20.9286 17.6195 20.9289 17.6195C20.9292 17.6195 20.9295 17.6195 20.9298 17.6195C20.9301 17.6195 20.9305 17.6195 20.9308 17.6195C20.9311 17.6195 20.9314 17.6195 20.9317 17.6195C20.932 17.6195 20.9323 17.6195 20.9326 17.6195C20.9329 17.6195 20.9332 17.6195 20.9336 17.6195C20.9339 17.6195 20.9342 17.6195 20.9345 17.6195C20.9348 17.6195 20.9351 17.6195 20.9354 17.6195C20.9357 17.6195 20.936 17.6195 20.9363 17.6195C20.9367 17.6195 20.937 17.6195 20.9373 17.6195C20.9376 17.6195 20.9379 17.6195 20.9382 17.6195C20.9385 17.6195 20.9388 17.6195 20.9391 17.6195C20.9394 17.6195 20.9398 17.6195 20.9401 17.6195C20.9404 17.6195 20.9407 17.6195 20.941 17.6195C20.9413 17.6195 20.9416 17.6195 20.9419 17.6195C20.9422 17.6195 20.9426 17.6195 20.9429 17.6195C20.9432 17.6195 20.9435 17.6195 20.9438 17.6195C20.9441 17.6195 20.9444 17.6195 20.9447 17.6195C20.945 17.6195 20.9454 17.6195 20.9457 17.6195C20.946 17.6195 20.9463 17.6195 20.9466 17.6195C20.9469 17.6195 20.9472 17.6195 20.9475 17.6195C20.9478 17.6195 20.9482 17.6195 20.9485 17.6195C20.9488 17.6195 20.9491 17.6195 20.9494 17.6195C20.9497 17.6195 20.95 17.6195 20.9503 17.6195C20.9506 17.6195 20.951 17.6195 20.9513 17.6195C20.9516 17.6195 20.9519 17.6195 20.9522 17.6195C20.9525 17.6195 20.9528 17.6195 20.9531 17.6195C20.9534 17.6195 20.9538 17.6195 20.9541 17.6195C20.9544 17.6195 20.9547 17.6195 20.955 17.6195C20.9553 17.6195 20.9556 17.6195 20.9559 17.6195C20.9563 17.6195 20.9566 17.6195 20.9569 17.6195C20.9572 17.6195 20.9575 17.6195 20.9578 17.6195C20.9581 17.6195 20.9584 17.6195 20.9587 17.6195C20.9591 17.6195 20.9594 17.6195 20.9597 17.6195C20.96 17.6195 20.9603 17.6195 20.9606 17.6195C20.9609 17.6195 20.9612 17.6195 20.9616 17.6195C20.9619 17.6195 20.9622 17.6195 20.9625 17.6195C20.9628 17.6195 20.9631 17.6195 20.9634 17.6195C20.9637 17.6195 20.9641 17.6195 20.9644 17.6195C20.9647 17.6195 20.965 17.6195 20.9653 17.6195C20.9656 17.6195 20.9659 17.6195 20.9662 17.6195C20.9666 17.6195 20.9669 17.6195 20.9672 17.6195C20.9675 17.6195 20.9678 17.6195 20.9681 17.6195C20.9684 17.6195 20.9687 17.6195 20.9691 17.6195C20.9694 17.6195 20.9697 17.6195 20.97 17.6195C20.9703 17.6195 20.9706 17.6195 20.9709 17.6195C20.9712 17.6195 20.9716 17.6195 20.9719 17.6195C20.9722 17.6195 20.9725 17.6195 20.9728 17.6195C20.9731 17.6195 20.9734 17.6195 20.9737 17.6195C20.9741 17.6195 20.9744 17.6195 20.9747 17.6195C20.975 17.6195 20.9753 17.6195 20.9756 17.6195C20.9759 17.6195 20.9762 17.6195 20.9766 17.6195C20.9769 17.6195 20.9772 17.6195 20.9775 17.6195C20.9778 17.6195 20.9781 17.6195 20.9784 17.6195C20.9788 17.6195 20.9791 17.6195 20.9794 17.6195C20.9797 17.6195 20.98 17.6195 20.9803 17.6195C20.9806 17.6195 20.9809 17.6195 20.9813 17.6195C20.9816 17.6195 20.9819 17.6195 20.9822 17.6195C20.9825 17.6195 20.9828 17.6195 20.9831 17.6195C20.9835 17.6195 20.9838 17.6195 20.9841 17.6195C20.9844 17.6195 20.9847 17.6195 20.985 17.6195C20.9853 17.6195 20.9856 17.6195 20.986 17.6195C20.9863 17.6195 20.9866 17.6195 20.9869 17.6195C20.9872 17.6195 20.9875 17.6195 20.9878 17.6195C20.9882 17.6195 20.9885 17.6195 20.9888 17.6195C20.9891 17.6195 20.9894 17.6195 20.9897 17.6195C20.99 17.6195 20.9904 17.6195 20.9907 17.6195C20.991 17.6195 20.9913 17.6195 20.9916 17.6195C20.9919 17.6195 20.9922 17.6195 20.9926 17.6195C20.9929 17.6195 20.9932 17.6195 20.9935 17.6195C20.9938 17.6195 20.9941 17.6195 20.9944 17.6195C20.9948 17.6195 20.9951 17.6195 20.9954 17.6195C20.9957 17.6195 20.996 17.6195 20.9963 17.6195C20.9966 17.6195 20.997 17.6195 20.9973 17.6195C20.9976 17.6195 20.9979 17.6195 20.9982 17.6195C20.9985 17.6195 20.9988 17.6195 20.9992 17.6195C20.9995 17.6195 20.9998 17.6195 21.0001 17.6195C21.0004 17.6195 21.0007 17.6195 21.001 17.6195C21.0014 17.6195 21.0017 17.6195 21.002 17.6195C21.0023 17.6195 21.0026 17.6195 21.0029 17.6195C21.0032 17.6195 21.0036 17.6195 21.0039 17.6195C21.0042 17.6195 21.0045 17.6195 21.0048 17.6195C21.0051 17.6195 21.0054 17.6195 21.0058 17.6195C21.0061 17.6195 21.0064 17.6195 21.0067 17.6195C21.007 17.6195 21.0073 17.6195 21.0077 17.6195C21.008 17.6195 21.0083 17.6195 21.0086 17.6195C21.0089 17.6195 21.0092 17.6195 21.0095 17.6195C21.0099 17.6195 21.0102 17.6195 21.0105 17.6195C21.0108 17.6195 21.0111 17.6195 21.0114 17.6195C21.0118 17.6195 21.0121 17.6195 21.0124 17.6195C21.0127 17.6195 21.013 17.6195 21.0133 17.6195C21.0136 17.6195 21.014 17.6195 21.0143 17.6195C21.0146 17.6195 21.0149 17.6195 21.0152 17.6195C21.0155 17.6195 21.0159 17.6195 21.0162 17.6195C21.0165 17.6195 21.0168 17.6195 21.0171 17.6195C21.0174 17.6195 21.0177 17.6195 21.0181 17.6195C21.0184 17.6195 21.0187 17.6195 21.019 17.6195C21.0193 17.6195 21.0196 17.6195 21.02 17.6195C21.0203 17.6195 21.0206 17.6195 21.0209 17.6195C21.0212 17.6195 21.0215 17.6195 21.0219 17.6195C21.0222 17.6195 21.0225 17.6195 21.0228 17.6195C21.0231 17.6195 21.0234 17.6195 21.0238 17.6195C21.0241 17.6195 21.0244 17.6195 21.0247 17.6195C21.025 17.6195 21.0253 17.6195 21.0256 17.6195C21.026 17.6195 21.0263 17.6195 21.0266 17.6195C21.0269 17.6195 21.0272 17.6195 21.0275 17.6195C21.0279 17.6195 21.0282 17.6195 21.0285 17.6195C21.0288 17.6195 21.0291 17.6195 21.0294 17.6195C21.0298 17.6195 21.0301 17.6195 21.0304 17.6195C21.0307 17.6195 21.031 17.6195 21.0313 17.6195C21.0317 17.6195 21.032 17.6195 21.0323 17.6195C21.0326 17.6195 21.0329 17.6195 21.0332 17.6195C21.0336 17.6195 21.0339 17.6195 21.0342 17.6195C21.0345 17.6195 21.0348 17.6195 21.0351 17.6195C21.0355 17.6195 21.0358 17.6195 21.0361 17.6195C21.0364 17.6195 21.0367 17.6195 21.037 17.6195C21.0374 17.6195 21.0377 17.6195 21.038 17.6195V15.6195ZM20.5753 15.6195H19.0898V17.6195H20.5753V15.6195ZM18.0898 16.6195V23H20.0898V16.6195H18.0898ZM19.0898 22H16.0213V24H19.0898V22ZM17.0213 23V6.36694H15.0213V23H17.0213ZM16.2337 7.34412C16.9245 7.19394 17.6679 7.09471 18.4655 7.04869L18.3503 5.05201C17.4594 5.10341 16.6117 5.21523 15.8089 5.38976L16.2337 7.34412ZM18.4846 7.04741C19.3098 6.98393 20.0384 6.95294 20.6727 6.95294V4.95294C19.9757 4.95294 19.1945 4.98689 18.3312 5.0533L18.4846 7.04741ZM20.8919 7.60741C20.218 7.60741 19.5875 7.63266 19.0019 7.68434L19.1777 9.6766C19.696 9.63087 20.267 9.60741 20.8919 9.60741V7.60741ZM18.0898 8.68047V14.1355H20.0898V8.68047H18.0898ZM19.0898 15.1355H20.4292V13.1355H19.0898V15.1355ZM20.4292 15.1355C21.2101 15.1355 21.9166 15.0932 22.5432 15.0037L22.2603 13.0238C21.7505 13.0967 21.1419 13.1355 20.4292 13.1355V15.1355ZM22.5432 15.0037C23.1955 14.9105 23.7946 14.7352 24.3063 14.446L23.3222 12.7048C23.0871 12.8377 22.7445 12.9546 22.2603 13.0238L22.5432 15.0037ZM24.2905 14.4547C24.8341 14.1603 25.2734 13.7436 25.5688 13.2019L23.813 12.2442C23.7189 12.4169 23.5736 12.5685 23.338 12.6961L24.2905 14.4547ZM25.5688 13.2019C25.8673 12.6548 25.9832 12.0215 25.9832 11.3593H23.9832C23.9832 11.8011 23.9043 12.077 23.813 12.2442L25.5688 13.2019ZM25.9832 11.3593C25.9832 10.7177 25.863 10.1046 25.5688 9.56538L23.813 10.5231C23.9086 10.6982 23.9832 10.9618 23.9832 11.3593H25.9832ZM25.5688 9.56538C25.2796 9.03508 24.8575 8.61911 24.3306 8.32132L23.3465 10.0624C23.5665 10.1868 23.7127 10.339 23.813 10.5231L25.5688 9.56538ZM24.3473 8.33096C23.861 8.04361 23.3064 7.86295 22.7071 7.76629L22.3887 9.74077C22.7959 9.80646 23.1018 9.91803 23.3299 10.0528L24.3473 8.33096ZM22.7379 7.77175C22.1624 7.66036 21.5458 7.60741 20.8919 7.60741V9.60741C21.4394 9.60741 21.9268 9.65187 22.3579 9.73531L22.7379 7.77175ZM31.5986 23H30.5986V24H31.5986V23ZM31.5986 6.12341V5.12341H30.5986V6.12341H31.5986ZM42.4357 6.12341H43.4357V5.12341H42.4357V6.12341ZM42.4357 8.72918V9.72918H43.4357V8.72918H42.4357ZM34.6671 8.72918V7.72918H33.6671V8.72918H34.6671ZM34.6671 12.8935H33.6671V13.8935H34.6671V12.8935ZM41.5833 12.8935H42.5833V11.8935H41.5833V12.8935ZM41.5833 15.4506V16.4506H42.5833V15.4506H41.5833ZM34.6671 15.4506V14.4506H33.6671V15.4506H34.6671ZM34.6671 20.3942H33.6671V21.3942H34.6671V20.3942ZM43.0201 20.3942H44.0201V19.3942H43.0201V20.3942ZM43.0201 23V24H44.0201V23H43.0201ZM32.5986 23V6.12341H30.5986V23H32.5986ZM31.5986 7.12341H42.4357V5.12341H31.5986V7.12341ZM41.4357 6.12341V8.72918H43.4357V6.12341H41.4357ZM42.4357 7.72918H34.6671V9.72918H42.4357V7.72918ZM33.6671 8.72918V12.8935H35.6671V8.72918H33.6671ZM34.6671 13.8935H41.5833V11.8935H34.6671V13.8935ZM40.5833 12.8935V15.4506H42.5833V12.8935H40.5833ZM41.5833 14.4506H34.6671V16.4506H41.5833V14.4506ZM33.6671 15.4506V20.3942H35.6671V15.4506H33.6671ZM34.6671 21.3942H43.0201V19.3942H34.6671V21.3942ZM42.0201 20.3942V23H44.0201V20.3942H42.0201ZM43.0201 22H31.5986V24H43.0201V22ZM49.3409 22.7808L49.7019 21.8483L49.7019 21.8483L49.3409 22.7808ZM46.7838 21.0761L46.046 21.7512L46.0533 21.759L46.7838 21.0761ZM45.1765 18.2999L44.2307 18.6246L44.2307 18.6246L45.1765 18.2999ZM45.2496 10.7992L44.322 10.4254L44.3173 10.4374L45.2496 10.7992ZM47.0273 8.04729L47.7345 8.75444L47.742 8.74676L47.0273 8.04729ZM49.6575 6.31823L49.2965 5.38567L49.2965 5.38567L49.6575 6.31823ZM54.7959 5.90423L54.5998 6.88482L54.6134 6.88752L54.627 6.88986L54.7959 5.90423ZM56.2815 6.24518L55.9874 7.20095L55.9874 7.20095L56.2815 6.24518ZM57.3286 6.65918L56.8608 7.54296L56.8608 7.54296L57.3286 6.65918ZM57.9131 6.97576L58.8542 7.31384L59.138 6.52394L58.4092 6.10752L57.9131 6.97576ZM57.0121 9.48412L56.4821 10.3321L57.5339 10.9895L57.9532 9.82219L57.0121 9.48412ZM55.3317 8.80223L55.0285 9.75516L55.0413 9.75923L55.0542 9.76295L55.3317 8.80223ZM50.9482 8.85094L51.3071 9.78429L51.3175 9.78031L51.3277 9.77611L50.9482 8.85094ZM49.2922 9.97118L48.5619 9.28802L48.5559 9.2944L48.5501 9.30089L49.2922 9.97118ZM48.1232 16.9848L47.1556 17.2372L47.1582 17.247L47.1609 17.2568L48.1232 16.9848ZM49.073 18.9331L48.2786 19.5405L48.283 19.5463L48.2875 19.5519L49.073 18.9331ZM50.6803 20.1994L50.2512 21.1027L50.2605 21.1071L50.2699 21.1113L50.6803 20.1994ZM55.6726 20.3212L55.9683 21.2765L55.9786 21.2733L55.9889 21.2699L55.6726 20.3212ZM57.2556 19.688L58.2052 19.3745L57.8363 18.2571L56.793 18.8014L57.2556 19.688ZM58.0836 22.1964L58.6383 23.0284L59.2719 22.606L59.0332 21.8829L58.0836 22.1964ZM57.2799 22.586L56.9239 21.6515L56.9162 21.6545L56.9085 21.6575L57.2799 22.586ZM56.111 22.9756L56.3535 23.9458L56.3697 23.9417L56.3857 23.9372L56.111 22.9756ZM54.5768 23.2435L54.4632 22.25L54.4492 22.2516L54.4353 22.2536L54.5768 23.2435ZM52.7503 22.3653C51.5864 22.3653 50.5752 22.1863 49.7019 21.8483L48.9799 23.7134C50.1197 24.1546 51.3815 24.3653 52.7503 24.3653V22.3653ZM49.7019 21.8483C48.8277 21.5098 48.1039 21.024 47.5143 20.3932L46.0533 21.759C46.8599 22.6219 47.8409 23.2725 48.9799 23.7134L49.7019 21.8483ZM47.5216 20.4011C46.926 19.7501 46.4562 18.9477 46.1223 17.9752L44.2307 18.6246C44.6437 19.8276 45.2454 20.876 46.046 21.7511L47.5216 20.4011ZM46.1223 17.9752C45.7919 17.0126 45.6164 15.8758 45.6164 14.5495H43.6164C43.6164 16.0482 43.8143 17.4116 44.2307 18.6246L46.1223 17.9752ZM45.6164 14.5495C45.6164 13.2355 45.8128 12.1119 46.1818 11.1609L44.3173 10.4374C43.8421 11.662 43.6164 13.0387 43.6164 14.5495H45.6164ZM46.1771 11.173C46.5707 10.1962 47.0928 9.39608 47.7345 8.7544L46.3202 7.34019C45.4683 8.19215 44.8051 9.22664 44.3221 10.4254L46.1771 11.173ZM47.742 8.74676C48.3878 8.08691 49.1436 7.58948 50.0185 7.2508L49.2965 5.38567C48.1582 5.82629 47.1605 6.48156 46.3127 7.34783L47.742 8.74676ZM50.0185 7.2508C50.9023 6.90868 51.8587 6.73376 52.8964 6.73376V4.73376C51.6287 4.73376 50.4258 4.94849 49.2965 5.38567L50.0185 7.2508ZM52.8964 6.73376C53.5416 6.73376 54.1077 6.78639 54.5998 6.88482L54.9921 4.92365C54.3477 4.79479 53.6475 4.73376 52.8964 4.73376V6.73376ZM54.627 6.88986C55.1649 6.98207 55.6165 7.08683 55.9874 7.20095L56.5756 5.2894C56.1022 5.14376 55.5635 5.02122 54.9649 4.91861L54.627 6.88986ZM55.9874 7.20095C56.372 7.31929 56.6578 7.43554 56.8608 7.54296L57.7965 5.77539C57.4474 5.59058 57.0352 5.43083 56.5755 5.2894L55.9874 7.20095ZM56.8608 7.54296C57.1366 7.68901 57.3187 7.78787 57.417 7.84401L58.4092 6.10752C58.2802 6.03377 58.0727 5.92157 57.7965 5.77539L56.8608 7.54296ZM56.972 6.63769L56.0709 9.14605L57.9532 9.82219L58.8542 7.31384L56.972 6.63769ZM57.5421 8.63612C57.0394 8.32198 56.3788 8.06384 55.6092 7.84152L55.0542 9.76295C55.7458 9.96275 56.2054 10.1592 56.4821 10.3321L57.5421 8.63612ZM55.6349 7.84931C54.811 7.58716 53.9281 7.46129 52.9938 7.46129V9.46129C53.748 9.46129 54.4237 9.56272 55.0285 9.75516L55.6349 7.84931ZM52.9938 7.46129C52.1419 7.46129 51.3302 7.61333 50.5686 7.92577L51.3277 9.77611C51.8325 9.56902 52.3845 9.46129 52.9938 9.46129V7.46129ZM50.5892 7.91759C49.8126 8.21627 49.1343 8.67616 48.5619 9.28802L50.0224 10.6543C50.3917 10.2596 50.8174 9.97267 51.3071 9.78429L50.5892 7.91759ZM48.5501 9.30089C47.9888 9.92224 47.5694 10.6805 47.274 11.5484L49.1673 12.193C49.3914 11.5348 49.6863 11.0267 50.0343 10.6415L48.5501 9.30089ZM47.274 11.5484C46.9714 12.4374 46.831 13.4351 46.831 14.5252H48.831C48.831 13.6021 48.9504 12.8301 49.1673 12.193L47.274 11.5484ZM46.831 14.5252C46.831 15.4903 46.9362 16.3963 47.1556 17.2372L49.0908 16.7324C48.9206 16.0797 48.831 15.3459 48.831 14.5252H46.831ZM47.1609 17.2568C47.4023 18.1109 47.7714 18.8772 48.2786 19.5405L49.8674 18.3256C49.5303 17.8849 49.2663 17.3524 49.0855 16.7129L47.1609 17.2568ZM48.2875 19.5519C48.8101 20.2152 49.4704 20.7318 50.2512 21.1027L51.1093 19.2961C50.5913 19.0501 50.1801 18.7224 49.8585 18.3142L48.2875 19.5519ZM50.2699 21.1113C51.0788 21.4753 52.0052 21.6378 53.0182 21.6378V19.6378C52.2128 19.6378 51.5806 19.508 51.0907 19.2875L50.2699 21.1113ZM53.0182 21.6378C54.1595 21.6378 55.1545 21.5284 55.9683 21.2765L55.377 19.3659C54.8271 19.5361 54.0524 19.6378 53.0182 19.6378V21.6378ZM55.9889 21.2699C56.6912 21.0357 57.2762 20.8052 57.7181 20.5746L56.793 18.8014C56.4881 18.9605 56.0178 19.152 55.3564 19.3725L55.9889 21.2699ZM56.306 20.0015L57.134 22.5098L59.0332 21.8829L58.2052 19.3745L56.306 20.0015ZM57.5289 21.3643C57.4207 21.4365 57.2291 21.5352 56.9239 21.6515L57.6359 23.5205C58.0126 23.377 58.3569 23.216 58.6383 23.0284L57.5289 21.3643ZM56.9085 21.6575C56.6243 21.7712 56.2687 21.8906 55.8363 22.0141L56.3857 23.9372C56.8625 23.8009 57.2862 23.6605 57.6513 23.5145L56.9085 21.6575ZM55.8685 22.0055C55.4643 22.1065 54.9971 22.189 54.4632 22.25L54.6903 24.2371C55.2929 24.1682 55.8485 24.0721 56.3535 23.9458L55.8685 22.0055ZM54.4353 22.2536C53.9196 22.3273 53.3584 22.3653 52.7503 22.3653V24.3653C53.441 24.3653 54.0975 24.3221 54.7182 24.2335L54.4353 22.2536Z" fill="black"/>
</svg>
