<svg width="58" height="58" viewBox="0 0 58 58" fill="none" xmlns="http://www.w3.org/2000/svg">
<path d="M29 56C43.9117 56 56 43.9117 56 29C56 14.0883 43.9117 2 29 2C14.0883 2 2 14.0883 2 29C2 43.9117 14.0883 56 29 56Z" stroke="#DADADA" stroke-width="4"/>
<path fill-rule="evenodd" clip-rule="evenodd" d="M29.891 38.7338C29.891 38.7338 30.4448 38.6734 30.7284 38.3744C30.988 38.1004 30.979 37.5833 30.979 37.5833C30.979 37.5833 30.9445 35.169 32.0865 34.8126C33.212 34.462 34.6571 37.1473 36.1908 38.1799C37.3493 38.9606 38.2287 38.7898 38.2287 38.7898L42.3269 38.7338C42.3269 38.7338 44.4699 38.6042 43.4539 36.9499C43.3699 36.8144 42.8612 35.7259 40.4076 33.4898C37.837 31.1491 38.1821 31.5277 41.2765 27.4783C43.1613 25.0125 43.9146 23.5071 43.679 22.8633C43.4554 22.2476 42.0688 22.4111 42.0688 22.4111L37.4558 22.4391C37.4558 22.4391 37.1137 22.3934 36.8601 22.5422C36.6125 22.688 36.4519 23.0283 36.4519 23.0283C36.4519 23.0283 35.7226 24.9359 34.7486 26.5592C32.6943 29.9825 31.8734 30.1637 31.5373 29.9516C30.7554 29.4552 30.9505 27.96 30.9505 26.898C30.9505 23.5792 31.4637 22.1961 29.9526 21.8381C29.4514 21.7188 29.0822 21.6407 27.7991 21.6275C26.1529 21.6113 24.7603 21.6334 23.971 22.0119C23.4458 22.2638 23.0406 22.8265 23.2882 22.8589C23.5928 22.8987 24.2831 23.0416 24.6493 23.5306C25.122 24.1626 25.1055 25.5796 25.1055 25.5796C25.1055 25.5796 25.3771 29.4861 24.4707 29.9707C23.8494 30.3036 22.9971 29.6246 21.1648 26.5179C20.2269 24.9271 19.5186 23.1683 19.5186 23.1683C19.5186 23.1683 19.382 22.8398 19.1374 22.663C18.8418 22.4494 18.4291 22.3831 18.4291 22.3831L14.0457 22.4111C14.0457 22.4111 13.3869 22.4288 13.1453 22.7101C12.9307 22.9591 13.1288 23.4761 13.1288 23.4761C13.1288 23.4761 16.5608 31.3583 20.4475 35.3311C24.0115 38.9724 28.0573 38.7338 28.0573 38.7338H29.891Z" fill="#DADADA"/>
</svg>
