<svg width="58" height="58" viewBox="0 0 58 58" fill="none" xmlns="http://www.w3.org/2000/svg">
<path d="M29 56C43.9117 56 56 43.9117 56 29C56 14.0883 43.9117 2 29 2C14.0883 2 2 14.0883 2 29C2 43.9117 14.0883 56 29 56Z" stroke="#DADADA" stroke-width="4"/>
<path fill-rule="evenodd" clip-rule="evenodd" d="M41.2728 33.3742V24.6257C41.2728 24.6257 41.2728 20.4091 37.0428 20.4091H20.9558C20.9558 20.4091 16.7273 20.4091 16.7273 24.6257V33.3742C16.7273 33.3742 16.7273 37.5909 20.9558 37.5909H37.0428C37.0428 37.5909 41.2728 37.5909 41.2728 33.3742ZM33.7654 29.0122L25.7298 33.7166V24.3064L33.7654 29.0122Z" fill="#DADADA"/>
</svg>
